<svg width="137" height="61" viewBox="0 0 137 61" fill="none" xmlns="http://www.w3.org/2000/svg">
<path d="M31.4826 27.5H29.7212C29.617 26.9934 29.4348 26.5483 29.1743 26.1648C28.9187 25.7812 28.6062 25.4593 28.2368 25.1989C27.8723 24.9337 27.4674 24.7348 27.0223 24.6023C26.5773 24.4697 26.1133 24.4034 25.6303 24.4034C24.7496 24.4034 23.9518 24.6259 23.2368 25.071C22.5266 25.5161 21.9608 26.1719 21.5394 27.0384C21.1227 27.9048 20.9144 28.9678 20.9144 30.2273C20.9144 31.4867 21.1227 32.5497 21.5394 33.4162C21.9608 34.2827 22.5266 34.9384 23.2368 35.3835C23.9518 35.8286 24.7496 36.0511 25.6303 36.0511C26.1133 36.0511 26.5773 35.9848 27.0223 35.8523C27.4674 35.7197 27.8723 35.5232 28.2368 35.2628C28.6062 34.9976 28.9187 34.6733 29.1743 34.2898C29.4348 33.9015 29.617 33.4564 29.7212 32.9545H31.4826C31.35 33.6979 31.1085 34.3632 30.7581 34.9503C30.4078 35.5374 29.9722 36.0369 29.4513 36.4489C28.9305 36.8561 28.3457 37.1662 27.6971 37.3793C27.0531 37.5923 26.3642 37.6989 25.6303 37.6989C24.3898 37.6989 23.2865 37.3958 22.3206 36.7898C21.3547 36.1837 20.5948 35.322 20.0408 34.2045C19.4868 33.0871 19.2098 31.7614 19.2098 30.2273C19.2098 28.6932 19.4868 27.3674 20.0408 26.25C20.5948 25.1326 21.3547 24.2708 22.3206 23.6648C23.2865 23.0587 24.3898 22.7557 25.6303 22.7557C26.3642 22.7557 27.0531 22.8622 27.6971 23.0753C28.3457 23.2884 28.9305 23.6009 29.4513 24.0128C29.9722 24.42 30.4078 24.9171 30.7581 25.5043C31.1085 26.0866 31.35 26.7519 31.4826 27.5ZM37.3118 37.7557C36.6205 37.7557 35.9931 37.6255 35.4297 37.3651C34.8662 37.0999 34.4188 36.7188 34.0873 36.2216C33.7559 35.7197 33.5902 35.1136 33.5902 34.4034C33.5902 33.7784 33.7133 33.2718 33.9595 32.8835C34.2057 32.4905 34.5348 32.1828 34.9467 31.9602C35.3586 31.7377 35.8132 31.572 36.3103 31.4631C36.8122 31.3494 37.3165 31.2595 37.8231 31.1932C38.486 31.108 39.0234 31.044 39.4353 31.0014C39.852 30.9541 40.155 30.8759 40.3444 30.767C40.5386 30.6581 40.6356 30.4687 40.6356 30.1989V30.142C40.6356 29.4413 40.4439 28.8968 40.0603 28.5085C39.6816 28.1203 39.1063 27.9261 38.3345 27.9261C37.5343 27.9261 36.9069 28.1013 36.4524 28.4517C35.9978 28.8021 35.6782 29.1761 35.4936 29.5739L33.9027 29.0057C34.1868 28.3428 34.5655 27.8267 35.039 27.4574C35.5173 27.0833 36.0381 26.8229 36.6015 26.6761C37.1697 26.5246 37.7284 26.4489 38.2777 26.4489C38.6281 26.4489 39.0305 26.4915 39.4851 26.5767C39.9443 26.6572 40.387 26.8253 40.8132 27.081C41.2441 27.3366 41.6015 27.7225 41.8856 28.2386C42.1697 28.7547 42.3118 29.446 42.3118 30.3125V37.5H40.6356V36.0227H40.5504C40.4368 36.2595 40.2474 36.5128 39.9822 36.7827C39.7171 37.0526 39.3643 37.2822 38.924 37.4716C38.4836 37.661 37.9462 37.7557 37.3118 37.7557ZM37.5674 36.25C38.2303 36.25 38.789 36.1198 39.2436 35.8594C39.7029 35.599 40.0485 35.2628 40.2805 34.8509C40.5173 34.4389 40.6356 34.0057 40.6356 33.5511V32.017C40.5646 32.1023 40.4084 32.1804 40.1669 32.2514C39.9301 32.3177 39.6555 32.3769 39.343 32.429C39.0352 32.4763 38.7346 32.5189 38.441 32.5568C38.1522 32.59 37.9178 32.6184 37.7379 32.642C37.3023 32.6989 36.8951 32.7912 36.5163 32.919C36.1423 33.0421 35.8392 33.2292 35.6072 33.4801C35.3799 33.7263 35.2663 34.0625 35.2663 34.4886C35.2663 35.071 35.4817 35.5114 35.9126 35.8097C36.3482 36.1032 36.8998 36.25 37.5674 36.25ZM47.0472 30.9375V37.5H45.3711V26.5909H46.9904V28.2955H47.1324C47.3881 27.7415 47.7764 27.2964 48.2972 26.9602C48.818 26.6193 49.4904 26.4489 50.3142 26.4489C51.0529 26.4489 51.6992 26.6004 52.2532 26.9034C52.8071 27.2017 53.238 27.6562 53.5458 28.267C53.8535 28.8731 54.0074 29.6402 54.0074 30.5682V37.5H52.3313V30.6818C52.3313 29.8248 52.1088 29.1572 51.6637 28.679C51.2186 28.196 50.6078 27.9545 49.8313 27.9545C49.2963 27.9545 48.818 28.0705 48.3966 28.3026C47.98 28.5346 47.6509 28.8731 47.4094 29.3182C47.1679 29.7633 47.0472 30.303 47.0472 30.9375ZM61.5021 37.7273C60.4794 37.7273 59.5987 37.4858 58.8601 37.0028C58.1214 36.5199 57.5532 35.8546 57.1555 35.0071C56.7578 34.1596 56.5589 33.1913 56.5589 32.1023C56.5589 30.9943 56.7625 30.0166 57.1697 29.169C57.5816 28.3168 58.1546 27.6515 58.8885 27.1733C59.6271 26.6903 60.4888 26.4489 61.4737 26.4489C62.2407 26.4489 62.932 26.5909 63.5476 26.875C64.1631 27.1591 64.6673 27.5568 65.0603 28.0682C65.4533 28.5795 65.6972 29.1761 65.7919 29.858H64.1157C63.9879 29.3608 63.7038 28.9205 63.2635 28.5369C62.8279 28.1487 62.2407 27.9545 61.5021 27.9545C60.8487 27.9545 60.2758 28.125 59.7834 28.4659C59.2957 28.8021 58.9145 29.2779 58.6399 29.8935C58.37 30.5043 58.2351 31.2216 58.2351 32.0455C58.2351 32.8883 58.3676 33.6222 58.6328 34.2472C58.9027 34.8722 59.2815 35.3575 59.7691 35.7031C60.2616 36.0488 60.8392 36.2216 61.5021 36.2216C61.9377 36.2216 62.3331 36.1458 62.6882 35.9943C63.0433 35.8428 63.344 35.625 63.5902 35.3409C63.8364 35.0568 64.0116 34.7159 64.1157 34.3182H65.7919C65.6972 34.9621 65.4628 35.5421 65.0888 36.0582C64.7194 36.5696 64.2294 36.9768 63.6186 37.2798C63.0125 37.5781 62.307 37.7273 61.5021 37.7273ZM72.816 37.7273C71.7649 37.7273 70.8582 37.4953 70.0959 37.0312C69.3383 36.5625 68.7535 35.9091 68.3416 35.071C67.9344 34.2282 67.7308 33.2481 67.7308 32.1307C67.7308 31.0133 67.9344 30.0284 68.3416 29.1761C68.7535 28.3191 69.3264 27.6515 70.0603 27.1733C70.799 26.6903 71.6607 26.4489 72.6456 26.4489C73.2138 26.4489 73.7748 26.5436 74.3288 26.733C74.8828 26.9223 75.387 27.2301 75.8416 27.6562C76.2961 28.0777 76.6584 28.6364 76.9282 29.3324C77.1981 30.0284 77.3331 30.8854 77.3331 31.9034V32.6136H68.924V31.1648H75.6285C75.6285 30.5492 75.5054 30 75.2592 29.517C75.0177 29.0341 74.6721 28.6529 74.2223 28.3736C73.7772 28.0942 73.2516 27.9545 72.6456 27.9545C71.978 27.9545 71.4003 28.1203 70.9126 28.4517C70.4297 28.7784 70.058 29.2045 69.7976 29.7301C69.5371 30.2557 69.4069 30.8191 69.4069 31.4205V32.3864C69.4069 33.2102 69.549 33.9086 69.8331 34.4815C70.1219 35.0497 70.522 35.483 71.0334 35.7812C71.5447 36.0748 72.1389 36.2216 72.816 36.2216C73.2564 36.2216 73.6541 36.16 74.0092 36.0369C74.3691 35.9091 74.6792 35.7197 74.9396 35.4688C75.2 35.2131 75.4013 34.8958 75.5433 34.517L77.1626 34.9716C76.9922 35.5208 76.7057 36.0038 76.3032 36.4205C75.9008 36.8324 75.4036 37.1544 74.8118 37.3864C74.2199 37.6136 73.5547 37.7273 72.816 37.7273ZM81.5589 22.9545V37.5H79.8828V22.9545H81.5589Z" fill="#2A3647"/>
<path d="M106.018 30.5001L111.261 35.7431M100.775 35.7431L106.018 30.5001L100.775 35.7431ZM111.261 25.2571L106.017 30.5001L111.261 25.2571ZM106.017 30.5001L100.775 25.2571L106.017 30.5001Z" stroke="#2A3647" stroke-width="2" stroke-linecap="round" stroke-linejoin="round"/>
<rect x="0.516663" y="0.5" width="135" height="60" rx="9.5" stroke="#2A3647"/>
</svg>
