<svg width="145" height="69" viewBox="0 0 145 69" fill="none" xmlns="http://www.w3.org/2000/svg">
<g filter="url(#filter0_d_371_2140)">
<path d="M35.4826 27.5H33.7212C33.617 26.9934 33.4348 26.5483 33.1743 26.1648C32.9187 25.7812 32.6062 25.4593 32.2368 25.1989C31.8723 24.9337 31.4674 24.7348 31.0223 24.6023C30.5773 24.4697 30.1133 24.4034 29.6303 24.4034C28.7496 24.4034 27.9518 24.6259 27.2368 25.071C26.5266 25.5161 25.9608 26.1719 25.5394 27.0384C25.1227 27.9048 24.9144 28.9678 24.9144 30.2273C24.9144 31.4867 25.1227 32.5497 25.5394 33.4162C25.9608 34.2827 26.5266 34.9384 27.2368 35.3835C27.9518 35.8286 28.7496 36.0511 29.6303 36.0511C30.1133 36.0511 30.5773 35.9848 31.0223 35.8523C31.4674 35.7197 31.8723 35.5232 32.2368 35.2628C32.6062 34.9976 32.9187 34.6733 33.1743 34.2898C33.4348 33.9015 33.617 33.4564 33.7212 32.9545H35.4826C35.35 33.6979 35.1085 34.3632 34.7581 34.9503C34.4078 35.5374 33.9722 36.0369 33.4513 36.4489C32.9305 36.8561 32.3457 37.1662 31.6971 37.3793C31.0531 37.5923 30.3642 37.6989 29.6303 37.6989C28.3898 37.6989 27.2865 37.3958 26.3206 36.7898C25.3547 36.1837 24.5948 35.322 24.0408 34.2045C23.4868 33.0871 23.2098 31.7614 23.2098 30.2273C23.2098 28.6932 23.4868 27.3674 24.0408 26.25C24.5948 25.1326 25.3547 24.2708 26.3206 23.6648C27.2865 23.0587 28.3898 22.7557 29.6303 22.7557C30.3642 22.7557 31.0531 22.8622 31.6971 23.0753C32.3457 23.2884 32.9305 23.6009 33.4513 24.0128C33.9722 24.42 34.4078 24.9171 34.7581 25.5043C35.1085 26.0866 35.35 26.7519 35.4826 27.5ZM41.3118 37.7557C40.6205 37.7557 39.9931 37.6255 39.4297 37.3651C38.8662 37.0999 38.4188 36.7188 38.0873 36.2216C37.7559 35.7197 37.5902 35.1136 37.5902 34.4034C37.5902 33.7784 37.7133 33.2718 37.9595 32.8835C38.2057 32.4905 38.5348 32.1828 38.9467 31.9602C39.3586 31.7377 39.8132 31.572 40.3103 31.4631C40.8122 31.3494 41.3165 31.2595 41.8231 31.1932C42.486 31.108 43.0234 31.044 43.4353 31.0014C43.852 30.9541 44.155 30.8759 44.3444 30.767C44.5386 30.6581 44.6356 30.4687 44.6356 30.1989V30.142C44.6356 29.4413 44.4439 28.8968 44.0603 28.5085C43.6816 28.1203 43.1063 27.9261 42.3345 27.9261C41.5343 27.9261 40.9069 28.1013 40.4524 28.4517C39.9978 28.8021 39.6782 29.1761 39.4936 29.5739L37.9027 29.0057C38.1868 28.3428 38.5655 27.8267 39.039 27.4574C39.5173 27.0833 40.0381 26.8229 40.6015 26.6761C41.1697 26.5246 41.7284 26.4489 42.2777 26.4489C42.6281 26.4489 43.0305 26.4915 43.4851 26.5767C43.9443 26.6572 44.387 26.8253 44.8132 27.081C45.2441 27.3366 45.6015 27.7225 45.8856 28.2386C46.1697 28.7547 46.3118 29.446 46.3118 30.3125V37.5H44.6356V36.0227H44.5504C44.4368 36.2595 44.2474 36.5128 43.9822 36.7827C43.7171 37.0526 43.3643 37.2822 42.924 37.4716C42.4836 37.661 41.9462 37.7557 41.3118 37.7557ZM41.5674 36.25C42.2303 36.25 42.789 36.1198 43.2436 35.8594C43.7029 35.599 44.0485 35.2628 44.2805 34.8509C44.5173 34.4389 44.6356 34.0057 44.6356 33.5511V32.017C44.5646 32.1023 44.4084 32.1804 44.1669 32.2514C43.9301 32.3177 43.6555 32.3769 43.343 32.429C43.0352 32.4763 42.7346 32.5189 42.441 32.5568C42.1522 32.59 41.9178 32.6184 41.7379 32.642C41.3023 32.6989 40.8951 32.7912 40.5163 32.919C40.1423 33.0421 39.8392 33.2292 39.6072 33.4801C39.3799 33.7263 39.2663 34.0625 39.2663 34.4886C39.2663 35.071 39.4817 35.5114 39.9126 35.8097C40.3482 36.1032 40.8998 36.25 41.5674 36.25ZM51.0472 30.9375V37.5H49.3711V26.5909H50.9904V28.2955H51.1324C51.3881 27.7415 51.7764 27.2964 52.2972 26.9602C52.818 26.6193 53.4904 26.4489 54.3142 26.4489C55.0529 26.4489 55.6992 26.6004 56.2532 26.9034C56.8071 27.2017 57.238 27.6562 57.5458 28.267C57.8535 28.8731 58.0074 29.6402 58.0074 30.5682V37.5H56.3313V30.6818C56.3313 29.8248 56.1088 29.1572 55.6637 28.679C55.2186 28.196 54.6078 27.9545 53.8313 27.9545C53.2963 27.9545 52.818 28.0705 52.3966 28.3026C51.98 28.5346 51.6509 28.8731 51.4094 29.3182C51.1679 29.7633 51.0472 30.303 51.0472 30.9375ZM65.5021 37.7273C64.4794 37.7273 63.5987 37.4858 62.8601 37.0028C62.1214 36.5199 61.5532 35.8546 61.1555 35.0071C60.7578 34.1596 60.5589 33.1913 60.5589 32.1023C60.5589 30.9943 60.7625 30.0166 61.1697 29.169C61.5816 28.3168 62.1546 27.6515 62.8885 27.1733C63.6271 26.6903 64.4888 26.4489 65.4737 26.4489C66.2407 26.4489 66.932 26.5909 67.5476 26.875C68.1631 27.1591 68.6673 27.5568 69.0603 28.0682C69.4533 28.5795 69.6972 29.1761 69.7919 29.858H68.1157C67.9879 29.3608 67.7038 28.9205 67.2635 28.5369C66.8279 28.1487 66.2407 27.9545 65.5021 27.9545C64.8487 27.9545 64.2758 28.125 63.7834 28.4659C63.2957 28.8021 62.9145 29.2779 62.6399 29.8935C62.37 30.5043 62.2351 31.2216 62.2351 32.0455C62.2351 32.8883 62.3676 33.6222 62.6328 34.2472C62.9027 34.8722 63.2815 35.3575 63.7691 35.7031C64.2616 36.0488 64.8392 36.2216 65.5021 36.2216C65.9377 36.2216 66.3331 36.1458 66.6882 35.9943C67.0433 35.8428 67.344 35.625 67.5902 35.3409C67.8364 35.0568 68.0116 34.7159 68.1157 34.3182H69.7919C69.6972 34.9621 69.4628 35.5421 69.0888 36.0582C68.7194 36.5696 68.2294 36.9768 67.6186 37.2798C67.0125 37.5781 66.307 37.7273 65.5021 37.7273ZM76.816 37.7273C75.7649 37.7273 74.8582 37.4953 74.0959 37.0312C73.3383 36.5625 72.7535 35.9091 72.3416 35.071C71.9344 34.2282 71.7308 33.2481 71.7308 32.1307C71.7308 31.0133 71.9344 30.0284 72.3416 29.1761C72.7535 28.3191 73.3264 27.6515 74.0603 27.1733C74.799 26.6903 75.6607 26.4489 76.6456 26.4489C77.2138 26.4489 77.7748 26.5436 78.3288 26.733C78.8828 26.9223 79.387 27.2301 79.8416 27.6562C80.2961 28.0777 80.6584 28.6364 80.9282 29.3324C81.1981 30.0284 81.3331 30.8854 81.3331 31.9034V32.6136H72.924V31.1648H79.6285C79.6285 30.5492 79.5054 30 79.2592 29.517C79.0177 29.0341 78.6721 28.6529 78.2223 28.3736C77.7772 28.0942 77.2516 27.9545 76.6456 27.9545C75.978 27.9545 75.4003 28.1203 74.9126 28.4517C74.4297 28.7784 74.058 29.2045 73.7976 29.7301C73.5371 30.2557 73.4069 30.8191 73.4069 31.4205V32.3864C73.4069 33.2102 73.549 33.9086 73.8331 34.4815C74.1219 35.0497 74.522 35.483 75.0334 35.7812C75.5447 36.0748 76.1389 36.2216 76.816 36.2216C77.2564 36.2216 77.6541 36.16 78.0092 36.0369C78.3691 35.9091 78.6792 35.7197 78.9396 35.4688C79.2 35.2131 79.4013 34.8958 79.5433 34.517L81.1626 34.9716C80.9922 35.5208 80.7057 36.0038 80.3032 36.4205C79.9008 36.8324 79.4036 37.1544 78.8118 37.3864C78.2199 37.6136 77.5547 37.7273 76.816 37.7273ZM85.5589 22.9545V37.5H83.8828V22.9545H85.5589Z" fill="#29ABE2"/>
<path d="M110.018 30.5001L115.261 35.7431M104.775 35.7431L110.018 30.5001L104.775 35.7431ZM115.261 25.2571L110.017 30.5001L115.261 25.2571ZM110.017 30.5001L104.775 25.2571L110.017 30.5001Z" stroke="#29ABE2" stroke-width="2" stroke-linecap="round" stroke-linejoin="round"/>
<rect x="4.51666" y="0.5" width="135" height="60" rx="9.5" stroke="#29ABE2" shape-rendering="crispEdges"/>
</g>
<defs>
<filter id="filter0_d_371_2140" x="0.0166626" y="0" width="144" height="69" filterUnits="userSpaceOnUse" color-interpolation-filters="sRGB">
<feFlood flood-opacity="0" result="BackgroundImageFix"/>
<feColorMatrix in="SourceAlpha" type="matrix" values="0 0 0 0 0 0 0 0 0 0 0 0 0 0 0 0 0 0 127 0" result="hardAlpha"/>
<feOffset dy="4"/>
<feGaussianBlur stdDeviation="2"/>
<feComposite in2="hardAlpha" operator="out"/>
<feColorMatrix type="matrix" values="0 0 0 0 0 0 0 0 0 0 0 0 0 0 0 0 0 0 0.25 0"/>
<feBlend mode="normal" in2="BackgroundImageFix" result="effect1_dropShadow_371_2140"/>
<feBlend mode="normal" in="SourceGraphic" in2="effect1_dropShadow_371_2140" result="shape"/>
</filter>
</defs>
</svg>
