<svg width="96" height="40" viewBox="0 0 96 40" fill="none" xmlns="http://www.w3.org/2000/svg">
<rect width="96" height="40" rx="8" fill="#EEEEEE"/>
<mask id="mask0_71395_18230" style="mask-type:alpha" maskUnits="userSpaceOnUse" x="6" y="8" width="25" height="24">
<rect x="6.5" y="8" width="24" height="24" fill="#D9D9D9"/>
</mask>
<g mask="url(#mask0_71395_18230)">
<path d="M13.5 29C12.95 29 12.4792 28.8042 12.0875 28.4125C11.6958 28.0208 11.5 27.55 11.5 27V14C11.2167 14 10.9792 13.9042 10.7875 13.7125C10.5958 13.5208 10.5 13.2833 10.5 13C10.5 12.7167 10.5958 12.4792 10.7875 12.2875C10.9792 12.0958 11.2167 12 11.5 12H15.5C15.5 11.7167 15.5958 11.4792 15.7875 11.2875C15.9792 11.0958 16.2167 11 16.5 11H20.5C20.7833 11 21.0208 11.0958 21.2125 11.2875C21.4042 11.4792 21.5 11.7167 21.5 12H25.5C25.7833 12 26.0208 12.0958 26.2125 12.2875C26.4042 12.4792 26.5 12.7167 26.5 13C26.5 13.2833 26.4042 13.5208 26.2125 13.7125C26.0208 13.9042 25.7833 14 25.5 14V27C25.5 27.55 25.3042 28.0208 24.9125 28.4125C24.5208 28.8042 24.05 29 23.5 29H13.5ZM13.5 14V27H23.5V14H13.5ZM15.5 24C15.5 24.2833 15.5958 24.5208 15.7875 24.7125C15.9792 24.9042 16.2167 25 16.5 25C16.7833 25 17.0208 24.9042 17.2125 24.7125C17.4042 24.5208 17.5 24.2833 17.5 24V17C17.5 16.7167 17.4042 16.4792 17.2125 16.2875C17.0208 16.0958 16.7833 16 16.5 16C16.2167 16 15.9792 16.0958 15.7875 16.2875C15.5958 16.4792 15.5 16.7167 15.5 17V24ZM19.5 24C19.5 24.2833 19.5958 24.5208 19.7875 24.7125C19.9792 24.9042 20.2167 25 20.5 25C20.7833 25 21.0208 24.9042 21.2125 24.7125C21.4042 24.5208 21.5 24.2833 21.5 24V17C21.5 16.7167 21.4042 16.4792 21.2125 16.2875C21.0208 16.0958 20.7833 16 20.5 16C20.2167 16 19.9792 16.0958 19.7875 16.2875C19.5958 16.4792 19.5 16.7167 19.5 17V24Z" fill="#29ABE2"/>
</g>
<path d="M43.6364 25.5H39.5114V13.8636H43.6705C44.8409 13.8636 45.8485 14.0966 46.6932 14.5625C47.5379 15.0246 48.1875 15.6894 48.642 16.5568C49.1004 17.4242 49.3295 18.4621 49.3295 19.6705C49.3295 20.8826 49.1004 21.9242 48.642 22.7955C48.1875 23.6667 47.5341 24.3352 46.6818 24.8011C45.8333 25.267 44.8182 25.5 43.6364 25.5ZM41.9716 23.392H43.5341C44.2614 23.392 44.8731 23.2633 45.3693 23.0057C45.8693 22.7443 46.2443 22.3409 46.4943 21.7955C46.7481 21.2462 46.875 20.5379 46.875 19.6705C46.875 18.8106 46.7481 18.108 46.4943 17.5625C46.2443 17.017 45.8712 16.6155 45.375 16.358C44.8788 16.1004 44.267 15.9716 43.5398 15.9716H41.9716V23.392ZM55.0838 25.6705C54.1861 25.6705 53.4134 25.4886 52.7656 25.125C52.1217 24.7576 51.6255 24.2386 51.277 23.5682C50.9285 22.8939 50.7543 22.0966 50.7543 21.1761C50.7543 20.2784 50.9285 19.4905 51.277 18.8125C51.6255 18.1345 52.116 17.6061 52.7486 17.2273C53.3849 16.8485 54.1312 16.6591 54.9872 16.6591C55.563 16.6591 56.099 16.7519 56.5952 16.9375C57.0952 17.1193 57.5308 17.3939 57.902 17.7614C58.277 18.1288 58.5687 18.5909 58.777 19.1477C58.9853 19.7008 59.0895 20.3485 59.0895 21.0909V21.7557H51.7202V20.2557H56.8111C56.8111 19.9072 56.7353 19.5985 56.5838 19.3295C56.4323 19.0606 56.2221 18.8504 55.9531 18.6989C55.688 18.5436 55.3793 18.4659 55.027 18.4659C54.6596 18.4659 54.3338 18.5511 54.0497 18.7216C53.7694 18.8883 53.5497 19.1136 53.3906 19.3977C53.2315 19.678 53.1501 19.9905 53.1463 20.3352V21.7614C53.1463 22.1932 53.2259 22.5663 53.3849 22.8807C53.5478 23.1951 53.777 23.4375 54.0724 23.608C54.3679 23.7784 54.7183 23.8636 55.1236 23.8636C55.3925 23.8636 55.6387 23.8258 55.8622 23.75C56.0857 23.6742 56.277 23.5606 56.4361 23.4091C56.5952 23.2576 56.7164 23.072 56.7997 22.8523L59.0384 23C58.9247 23.5379 58.6918 24.0076 58.3395 24.4091C57.991 24.8068 57.5402 25.1174 56.9872 25.3409C56.438 25.5606 55.8035 25.6705 55.0838 25.6705ZM63.0895 13.8636V25.5H60.669V13.8636H63.0895ZM69.0057 25.6705C68.108 25.6705 67.3352 25.4886 66.6875 25.125C66.0436 24.7576 65.5473 24.2386 65.1989 23.5682C64.8504 22.8939 64.6761 22.0966 64.6761 21.1761C64.6761 20.2784 64.8504 19.4905 65.1989 18.8125C65.5473 18.1345 66.0379 17.6061 66.6705 17.2273C67.3068 16.8485 68.053 16.6591 68.9091 16.6591C69.4848 16.6591 70.0208 16.7519 70.517 16.9375C71.017 17.1193 71.4527 17.3939 71.8239 17.7614C72.1989 18.1288 72.4905 18.5909 72.6989 19.1477C72.9072 19.7008 73.0114 20.3485 73.0114 21.0909V21.7557H65.642V20.2557H70.733C70.733 19.9072 70.6572 19.5985 70.5057 19.3295C70.3542 19.0606 70.1439 18.8504 69.875 18.6989C69.6098 18.5436 69.3011 18.4659 68.9489 18.4659C68.5814 18.4659 68.2557 18.5511 67.9716 18.7216C67.6913 18.8883 67.4716 19.1136 67.3125 19.3977C67.1534 19.678 67.072 19.9905 67.0682 20.3352V21.7614C67.0682 22.1932 67.1477 22.5663 67.3068 22.8807C67.4697 23.1951 67.6989 23.4375 67.9943 23.608C68.2898 23.7784 68.6402 23.8636 69.0455 23.8636C69.3144 23.8636 69.5606 23.8258 69.7841 23.75C70.0076 23.6742 70.1989 23.5606 70.358 23.4091C70.517 23.2576 70.6383 23.072 70.7216 22.8523L72.9602 23C72.8466 23.5379 72.6136 24.0076 72.2614 24.4091C71.9129 24.8068 71.4621 25.1174 70.9091 25.3409C70.3598 25.5606 69.7254 25.6705 69.0057 25.6705ZM79.233 16.7727V18.5909H73.9773V16.7727H79.233ZM75.1705 14.6818H77.5909V22.8182C77.5909 23.0417 77.625 23.2159 77.6932 23.3409C77.7614 23.4621 77.8561 23.5473 77.9773 23.5966C78.1023 23.6458 78.2462 23.6705 78.4091 23.6705C78.5227 23.6705 78.6364 23.661 78.75 23.642C78.8636 23.6193 78.9508 23.6023 79.0114 23.5909L79.392 25.392C79.2708 25.4299 79.1004 25.4735 78.8807 25.5227C78.661 25.5758 78.3939 25.608 78.0795 25.6193C77.4962 25.642 76.9848 25.5644 76.5455 25.3864C76.1098 25.2083 75.7708 24.9318 75.5284 24.5568C75.286 24.1818 75.1667 23.7083 75.1705 23.1364V14.6818ZM84.6932 25.6705C83.7955 25.6705 83.0227 25.4886 82.375 25.125C81.7311 24.7576 81.2348 24.2386 80.8864 23.5682C80.5379 22.8939 80.3636 22.0966 80.3636 21.1761C80.3636 20.2784 80.5379 19.4905 80.8864 18.8125C81.2348 18.1345 81.7254 17.6061 82.358 17.2273C82.9943 16.8485 83.7405 16.6591 84.5966 16.6591C85.1723 16.6591 85.7083 16.7519 86.2045 16.9375C86.7045 17.1193 87.1402 17.3939 87.5114 17.7614C87.8864 18.1288 88.178 18.5909 88.3864 19.1477C88.5947 19.7008 88.6989 20.3485 88.6989 21.0909V21.7557H81.3295V20.2557H86.4205C86.4205 19.9072 86.3447 19.5985 86.1932 19.3295C86.0417 19.0606 85.8314 18.8504 85.5625 18.6989C85.2973 18.5436 84.9886 18.4659 84.6364 18.4659C84.2689 18.4659 83.9432 18.5511 83.6591 18.7216C83.3788 18.8883 83.1591 19.1136 83 19.3977C82.8409 19.678 82.7595 19.9905 82.7557 20.3352V21.7614C82.7557 22.1932 82.8352 22.5663 82.9943 22.8807C83.1572 23.1951 83.3864 23.4375 83.6818 23.608C83.9773 23.7784 84.3277 23.8636 84.733 23.8636C85.0019 23.8636 85.2481 23.8258 85.4716 23.75C85.6951 23.6742 85.8864 23.5606 86.0455 23.4091C86.2045 23.2576 86.3258 23.072 86.4091 22.8523L88.6477 23C88.5341 23.5379 88.3011 24.0076 87.9489 24.4091C87.6004 24.8068 87.1496 25.1174 86.5966 25.3409C86.0473 25.5606 85.4129 25.6705 84.6932 25.6705Z" fill="#29ABE2"/>
</svg>
