<svg width="96" height="40" viewBox="0 0 96 40" fill="none" xmlns="http://www.w3.org/2000/svg">
<rect width="96" height="40" rx="8" fill="#EEEEEE"/>
<mask id="mask0_71395_18219" style="mask-type:alpha" maskUnits="userSpaceOnUse" x="8" y="8" width="24" height="24">
<rect x="8" y="8" width="24" height="24" fill="#D9D9D9"/>
</mask>
<g mask="url(#mask0_71395_18219)">
<path d="M13 27H14.4L23.025 18.375L21.625 16.975L13 25.6V27ZM27.3 16.925L23.05 12.725L24.45 11.325C24.8333 10.9417 25.3042 10.75 25.8625 10.75C26.4208 10.75 26.8917 10.9417 27.275 11.325L28.675 12.725C29.0583 13.1083 29.2583 13.5708 29.275 14.1125C29.2917 14.6542 29.1083 15.1167 28.725 15.5L27.3 16.925ZM25.85 18.4L15.25 29H11V24.75L21.6 14.15L25.85 18.4Z" fill="#29ABE2"/>
</g>
<path d="M41.0114 25.5V13.8636H48.8523V15.892H43.4716V18.6648H48.4489V20.6932H43.4716V23.4716H48.875V25.5H41.0114ZM53.9787 25.642C53.3158 25.642 52.7154 25.4716 52.1776 25.1307C51.6435 24.786 51.2192 24.2803 50.9048 23.6136C50.5942 22.9432 50.4389 22.1212 50.4389 21.1477C50.4389 20.1477 50.5999 19.3163 50.9219 18.6534C51.2438 17.9867 51.6719 17.4886 52.206 17.1591C52.7438 16.8258 53.3329 16.6591 53.973 16.6591C54.4616 16.6591 54.8688 16.7424 55.1946 16.9091C55.5241 17.072 55.7893 17.2765 55.9901 17.5227C56.1946 17.7652 56.3499 18.0038 56.456 18.2386H56.5298V13.8636H58.9446V25.5H56.5582V24.1023H56.456C56.3423 24.3447 56.1813 24.5852 55.973 24.8239C55.7685 25.0587 55.5014 25.2538 55.1719 25.4091C54.8461 25.5644 54.4484 25.642 53.9787 25.642ZM54.7457 23.7159C55.1359 23.7159 55.4654 23.6098 55.7344 23.3977C56.0071 23.1818 56.2154 22.8807 56.3594 22.4943C56.5071 22.108 56.581 21.6553 56.581 21.1364C56.581 20.6174 56.509 20.1667 56.3651 19.7841C56.2211 19.4015 56.0128 19.1061 55.7401 18.8977C55.4673 18.6894 55.1359 18.5852 54.7457 18.5852C54.348 18.5852 54.0128 18.6932 53.7401 18.9091C53.4673 19.125 53.2609 19.4242 53.1207 19.8068C52.9806 20.1894 52.9105 20.6326 52.9105 21.1364C52.9105 21.6439 52.9806 22.0928 53.1207 22.483C53.2647 22.8693 53.4711 23.1723 53.7401 23.392C54.0128 23.608 54.348 23.7159 54.7457 23.7159ZM60.9347 25.5V16.7727H63.3551V25.5H60.9347ZM62.1506 15.6477C61.7907 15.6477 61.482 15.5284 61.2244 15.2898C60.9706 15.0473 60.8438 14.7576 60.8438 14.4205C60.8438 14.0871 60.9706 13.8011 61.2244 13.5625C61.482 13.3201 61.7907 13.1989 62.1506 13.1989C62.5104 13.1989 62.8172 13.3201 63.071 13.5625C63.3286 13.8011 63.4574 14.0871 63.4574 14.4205C63.4574 14.7576 63.3286 15.0473 63.071 15.2898C62.8172 15.5284 62.5104 15.6477 62.1506 15.6477ZM69.9361 16.7727V18.5909H64.6804V16.7727H69.9361ZM65.8736 14.6818H68.294V22.8182C68.294 23.0417 68.3281 23.2159 68.3963 23.3409C68.4645 23.4621 68.5592 23.5473 68.6804 23.5966C68.8054 23.6458 68.9493 23.6705 69.1122 23.6705C69.2259 23.6705 69.3395 23.661 69.4531 23.642C69.5668 23.6193 69.6539 23.6023 69.7145 23.5909L70.0952 25.392C69.974 25.4299 69.8035 25.4735 69.5838 25.5227C69.3641 25.5758 69.0971 25.608 68.7827 25.6193C68.1993 25.642 67.688 25.5644 67.2486 25.3864C66.813 25.2083 66.474 24.9318 66.2315 24.5568C65.9891 24.1818 65.8698 23.7083 65.8736 23.1364V14.6818Z" fill="#29ABE2"/>
</svg>
