<svg width="440" height="120" viewBox="0 0 440 120" fill="none" xmlns="http://www.w3.org/2000/svg">
<rect x="0.5" y="0.5" width="439" height="119" rx="9.5" fill="white"/>
<path d="M17.7614 37V22.4545H26.5398V24.017H19.5227V28.9318H26.0852V30.4943H19.5227V35.4375H26.6534V37H17.7614ZM31.1634 30.4375V37H29.4872V26.0909H31.1065V27.7955H31.2486C31.5043 27.2415 31.8925 26.7964 32.4134 26.4602C32.9342 26.1193 33.6065 25.9489 34.4304 25.9489C35.169 25.9489 35.8153 26.1004 36.3693 26.4034C36.9233 26.7017 37.3542 27.1562 37.6619 27.767C37.9697 28.3731 38.1236 29.1402 38.1236 30.0682V37H36.4474V30.1818C36.4474 29.3248 36.2249 28.6572 35.7798 28.179C35.3348 27.696 34.724 27.4545 33.9474 27.4545C33.4124 27.4545 32.9342 27.5705 32.5128 27.8026C32.0961 28.0346 31.767 28.3731 31.5256 28.8182C31.2841 29.2633 31.1634 29.803 31.1634 30.4375ZM45.9308 26.0909V27.5114H40.2773V26.0909H45.9308ZM41.9251 23.4773H43.6012V33.875C43.6012 34.3485 43.6699 34.7036 43.8072 34.9403C43.9492 35.1723 44.1291 35.3286 44.3469 35.4091C44.5695 35.4848 44.8039 35.5227 45.0501 35.5227C45.2347 35.5227 45.3862 35.5133 45.5046 35.4943C45.623 35.4706 45.7177 35.4517 45.7887 35.4375L46.1296 36.9432C46.016 36.9858 45.8574 37.0284 45.6538 37.071C45.4502 37.1184 45.1921 37.142 44.8796 37.142C44.4061 37.142 43.9421 37.0402 43.4876 36.8366C43.0378 36.633 42.6637 36.3229 42.3654 35.9062C42.0719 35.4896 41.9251 34.964 41.9251 34.3295V23.4773ZM52.9087 37.2273C51.8576 37.2273 50.9509 36.9953 50.1886 36.5312C49.431 36.0625 48.8462 35.4091 48.4343 34.571C48.0271 33.7282 47.8235 32.7481 47.8235 31.6307C47.8235 30.5133 48.0271 29.5284 48.4343 28.6761C48.8462 27.8191 49.4192 27.1515 50.1531 26.6733C50.8917 26.1903 51.7534 25.9489 52.7383 25.9489C53.3065 25.9489 53.8675 26.0436 54.4215 26.233C54.9755 26.4223 55.4798 26.7301 55.9343 27.1562C56.3888 27.5777 56.7511 28.1364 57.021 28.8324C57.2908 29.5284 57.4258 30.3854 57.4258 31.4034V32.1136H49.0167V30.6648H55.7212C55.7212 30.0492 55.5981 29.5 55.3519 29.017C55.1104 28.5341 54.7648 28.1529 54.315 27.8736C53.8699 27.5942 53.3443 27.4545 52.7383 27.4545C52.0707 27.4545 51.493 27.6203 51.0053 27.9517C50.5224 28.2784 50.1507 28.7045 49.8903 29.2301C49.6299 29.7557 49.4996 30.3191 49.4996 30.9205V31.8864C49.4996 32.7102 49.6417 33.4086 49.9258 33.9815C50.2146 34.5497 50.6147 34.983 51.1261 35.2812C51.6374 35.5748 52.2317 35.7216 52.9087 35.7216C53.3491 35.7216 53.7468 35.66 54.1019 35.5369C54.4618 35.4091 54.7719 35.2197 55.0323 34.9688C55.2927 34.7131 55.494 34.3958 55.636 34.017L57.2553 34.4716C57.0849 35.0208 56.7984 35.5038 56.396 35.9205C55.9935 36.3324 55.4963 36.6544 54.9045 36.8864C54.3126 37.1136 53.6474 37.2273 52.9087 37.2273ZM59.9755 37V26.0909H61.5948V27.7386H61.7085C61.9073 27.1989 62.2672 26.7609 62.788 26.4247C63.3088 26.0885 63.896 25.9205 64.5494 25.9205C64.6725 25.9205 64.8263 25.9228 65.011 25.9276C65.1957 25.9323 65.3353 25.9394 65.43 25.9489V27.6534C65.3732 27.6392 65.243 27.6179 65.0394 27.5895C64.8406 27.5563 64.6299 27.5398 64.4073 27.5398C63.877 27.5398 63.4035 27.651 62.9869 27.8736C62.5749 28.0914 62.2482 28.3944 62.0067 28.7827C61.77 29.1662 61.6516 29.6042 61.6516 30.0966V37H59.9755ZM76.2521 37.2557C75.5608 37.2557 74.9335 37.1255 74.37 36.8651C73.8066 36.5999 73.3591 36.2188 73.0277 35.7216C72.6963 35.2197 72.5305 34.6136 72.5305 33.9034C72.5305 33.2784 72.6536 32.7718 72.8999 32.3835C73.1461 31.9905 73.4751 31.6828 73.8871 31.4602C74.299 31.2377 74.7536 31.072 75.2507 30.9631C75.7526 30.8494 76.2569 30.7595 76.7635 30.6932C77.4264 30.608 77.9638 30.544 78.3757 30.5014C78.7924 30.4541 79.0954 30.3759 79.2848 30.267C79.4789 30.1581 79.576 29.9687 79.576 29.6989V29.642C79.576 28.9413 79.3842 28.3968 79.0007 28.0085C78.6219 27.6203 78.0466 27.4261 77.2749 27.4261C76.4747 27.4261 75.8473 27.6013 75.3928 27.9517C74.9382 28.3021 74.6186 28.6761 74.4339 29.0739L72.843 28.5057C73.1271 27.8428 73.5059 27.3267 73.9794 26.9574C74.4576 26.5833 74.9785 26.3229 75.5419 26.1761C76.1101 26.0246 76.6688 25.9489 77.218 25.9489C77.5684 25.9489 77.9709 25.9915 78.4254 26.0767C78.8847 26.1572 79.3274 26.3253 79.7536 26.581C80.1844 26.8366 80.5419 27.2225 80.826 27.7386C81.1101 28.2547 81.2521 28.946 81.2521 29.8125V37H79.576V35.5227H79.4908C79.3771 35.7595 79.1877 36.0128 78.9226 36.2827C78.6574 36.5526 78.3047 36.7822 77.8643 36.9716C77.424 37.161 76.8866 37.2557 76.2521 37.2557ZM76.5078 35.75C77.1707 35.75 77.7294 35.6198 78.1839 35.3594C78.6432 35.099 78.9889 34.7628 79.2209 34.3509C79.4576 33.9389 79.576 33.5057 79.576 33.0511V31.517C79.505 31.6023 79.3487 31.6804 79.1072 31.7514C78.8705 31.8177 78.5959 31.8769 78.2834 31.929C77.9756 31.9763 77.675 32.0189 77.3814 32.0568C77.0926 32.09 76.8582 32.1184 76.6783 32.142C76.2427 32.1989 75.8355 32.2912 75.4567 32.419C75.0826 32.5421 74.7796 32.7292 74.5476 32.9801C74.3203 33.2263 74.2067 33.5625 74.2067 33.9886C74.2067 34.571 74.4221 35.0114 74.853 35.3097C75.2886 35.6032 75.8402 35.75 76.5078 35.75ZM94.6523 37H90.1637V22.4545H94.8512C96.2622 22.4545 97.4696 22.7457 98.4734 23.3281C99.4772 23.9058 100.247 24.7367 100.782 25.821C101.317 26.9006 101.584 28.1932 101.584 29.6989C101.584 31.214 101.314 32.5185 100.775 33.6122C100.235 34.7012 99.4487 35.5393 98.4165 36.1264C97.3844 36.7088 96.1296 37 94.6523 37ZM91.9251 35.4375H94.5387C95.7414 35.4375 96.738 35.2055 97.5288 34.7415C98.3195 34.2775 98.909 33.617 99.2972 32.7599C99.6855 31.9029 99.8796 30.8826 99.8796 29.6989C99.8796 28.5246 99.6879 27.5137 99.3043 26.6662C98.9208 25.8139 98.3479 25.1605 97.5856 24.706C96.8233 24.2467 95.8739 24.017 94.7376 24.017H91.9251V35.4375ZM108.885 37.2273C107.834 37.2273 106.927 36.9953 106.165 36.5312C105.408 36.0625 104.823 35.4091 104.411 34.571C104.004 33.7282 103.8 32.7481 103.8 31.6307C103.8 30.5133 104.004 29.5284 104.411 28.6761C104.823 27.8191 105.396 27.1515 106.13 26.6733C106.868 26.1903 107.73 25.9489 108.715 25.9489C109.283 25.9489 109.844 26.0436 110.398 26.233C110.952 26.4223 111.456 26.7301 111.911 27.1562C112.365 27.5777 112.728 28.1364 112.998 28.8324C113.267 29.5284 113.402 30.3854 113.402 31.4034V32.1136H104.993V30.6648H111.698C111.698 30.0492 111.575 29.5 111.328 29.017C111.087 28.5341 110.741 28.1529 110.292 27.8736C109.846 27.5942 109.321 27.4545 108.715 27.4545C108.047 27.4545 107.47 27.6203 106.982 27.9517C106.499 28.2784 106.127 28.7045 105.867 29.2301C105.606 29.7557 105.476 30.3191 105.476 30.9205V31.8864C105.476 32.7102 105.618 33.4086 105.902 33.9815C106.191 34.5497 106.591 34.983 107.103 35.2812C107.614 35.5748 108.208 35.7216 108.885 35.7216C109.326 35.7216 109.723 35.66 110.078 35.5369C110.438 35.4091 110.748 35.2197 111.009 34.9688C111.269 34.7131 111.471 34.3958 111.613 34.017L113.232 34.4716C113.061 35.0208 112.775 35.5038 112.373 35.9205C111.97 36.3324 111.473 36.6544 110.881 36.8864C110.289 37.1136 109.624 37.2273 108.885 37.2273ZM123.679 28.5341L122.174 28.9602C122.079 28.7093 121.939 28.4654 121.755 28.2287C121.575 27.9872 121.328 27.7884 121.016 27.6321C120.703 27.4759 120.303 27.3977 119.816 27.3977C119.148 27.3977 118.592 27.5516 118.147 27.8594C117.706 28.1624 117.486 28.5483 117.486 29.017C117.486 29.4337 117.638 29.7628 117.941 30.0043C118.244 30.2457 118.717 30.447 119.361 30.608L120.98 31.0057C121.956 31.2424 122.683 31.6046 123.161 32.0923C123.639 32.5753 123.878 33.1979 123.878 33.9602C123.878 34.5852 123.698 35.1439 123.338 35.6364C122.983 36.1288 122.486 36.517 121.847 36.8011C121.208 37.0852 120.464 37.2273 119.617 37.2273C118.504 37.2273 117.583 36.9858 116.854 36.5028C116.125 36.0199 115.663 35.3144 115.469 34.3864L117.06 33.9886C117.212 34.5758 117.498 35.0161 117.919 35.3097C118.346 35.6032 118.902 35.75 119.588 35.75C120.37 35.75 120.99 35.5843 121.449 35.2528C121.913 34.9167 122.145 34.5142 122.145 34.0455C122.145 33.6667 122.013 33.3494 121.748 33.0938C121.482 32.8333 121.075 32.6392 120.526 32.5114L118.708 32.0852C117.709 31.8485 116.975 31.4815 116.506 30.9844C116.042 30.4825 115.81 29.8551 115.81 29.1023C115.81 28.4867 115.983 27.9422 116.328 27.4688C116.679 26.9953 117.155 26.6236 117.756 26.3537C118.362 26.0838 119.049 25.9489 119.816 25.9489C120.895 25.9489 121.743 26.1856 122.358 26.6591C122.979 27.1326 123.419 27.7576 123.679 28.5341ZM130.833 37.2273C129.81 37.2273 128.93 36.9858 128.191 36.5028C127.452 36.0199 126.884 35.3546 126.487 34.5071C126.089 33.6596 125.89 32.6913 125.89 31.6023C125.89 30.4943 126.094 29.5166 126.501 28.669C126.913 27.8168 127.486 27.1515 128.219 26.6733C128.958 26.1903 129.82 25.9489 130.805 25.9489C131.572 25.9489 132.263 26.0909 132.879 26.375C133.494 26.6591 133.998 27.0568 134.391 27.5682C134.784 28.0795 135.028 28.6761 135.123 29.358H133.447C133.319 28.8608 133.035 28.4205 132.594 28.0369C132.159 27.6487 131.572 27.4545 130.833 27.4545C130.18 27.4545 129.607 27.625 129.114 27.9659C128.627 28.3021 128.246 28.7779 127.971 29.3935C127.701 30.0043 127.566 30.7216 127.566 31.5455C127.566 32.3883 127.699 33.1222 127.964 33.7472C128.234 34.3722 128.612 34.8575 129.1 35.2031C129.593 35.5488 130.17 35.7216 130.833 35.7216C131.269 35.7216 131.664 35.6458 132.019 35.4943C132.374 35.3428 132.675 35.125 132.921 34.8409C133.167 34.5568 133.343 34.2159 133.447 33.8182H135.123C135.028 34.4621 134.794 35.0421 134.42 35.5582C134.05 36.0696 133.56 36.4768 132.95 36.7798C132.344 37.0781 131.638 37.2273 130.833 37.2273ZM137.573 37V26.0909H139.192V27.7386H139.306C139.505 27.1989 139.865 26.7609 140.386 26.4247C140.906 26.0885 141.494 25.9205 142.147 25.9205C142.27 25.9205 142.424 25.9228 142.609 25.9276C142.793 25.9323 142.933 25.9394 143.028 25.9489V27.6534C142.971 27.6392 142.841 27.6179 142.637 27.5895C142.438 27.5563 142.228 27.5398 142.005 27.5398C141.475 27.5398 141.001 27.651 140.585 27.8736C140.173 28.0914 139.846 28.3944 139.604 28.7827C139.368 29.1662 139.249 29.6042 139.249 30.0966V37H137.573ZM145.015 37V26.0909H146.691V37H145.015ZM145.867 24.2727C145.54 24.2727 145.258 24.1615 145.022 23.9389C144.79 23.7164 144.674 23.4489 144.674 23.1364C144.674 22.8239 144.79 22.5563 145.022 22.3338C145.258 22.1113 145.54 22 145.867 22C146.194 22 146.473 22.1113 146.705 22.3338C146.942 22.5563 147.06 22.8239 147.06 23.1364C147.06 23.4489 146.942 23.7164 146.705 23.9389C146.473 24.1615 146.194 24.2727 145.867 24.2727ZM149.761 41.0909V26.0909H151.38V27.8239H151.579C151.702 27.6345 151.872 27.393 152.09 27.0994C152.313 26.8011 152.63 26.536 153.042 26.304C153.459 26.0672 154.022 25.9489 154.732 25.9489C155.651 25.9489 156.46 26.1785 157.161 26.6378C157.862 27.0971 158.409 27.7481 158.802 28.5909C159.195 29.4337 159.391 30.428 159.391 31.5739C159.391 32.7292 159.195 33.7306 158.802 34.5781C158.409 35.4209 157.864 36.0743 157.168 36.5384C156.472 36.9976 155.67 37.2273 154.761 37.2273C154.06 37.2273 153.499 37.1113 153.077 36.8793C152.656 36.6425 152.332 36.375 152.104 36.0767C151.877 35.7737 151.702 35.5227 151.579 35.3239H151.437V41.0909H149.761ZM151.408 31.5455C151.408 32.3693 151.529 33.0961 151.771 33.7259C152.012 34.3509 152.365 34.8409 152.829 35.196C153.293 35.5464 153.861 35.7216 154.533 35.7216C155.234 35.7216 155.819 35.5369 156.288 35.1676C156.761 34.7936 157.116 34.2917 157.353 33.6619C157.594 33.0275 157.715 32.322 157.715 31.5455C157.715 30.7784 157.597 30.0871 157.36 29.4716C157.128 28.8513 156.775 28.3613 156.302 28.0014C155.833 27.6368 155.244 27.4545 154.533 27.4545C153.852 27.4545 153.279 27.6274 152.815 27.973C152.351 28.3139 152 28.7921 151.763 29.4077C151.527 30.0185 151.408 30.7311 151.408 31.5455ZM166.692 26.0909V27.5114H161.039V26.0909H166.692ZM162.687 23.4773H164.363V33.875C164.363 34.3485 164.432 34.7036 164.569 34.9403C164.711 35.1723 164.891 35.3286 165.109 35.4091C165.331 35.4848 165.566 35.5227 165.812 35.5227C165.996 35.5227 166.148 35.5133 166.266 35.4943C166.385 35.4706 166.479 35.4517 166.55 35.4375L166.891 36.9432C166.778 36.9858 166.619 37.0284 166.415 37.071C166.212 37.1184 165.954 37.142 165.641 37.142C165.168 37.142 164.704 37.0402 164.249 36.8366C163.799 36.633 163.425 36.3229 163.127 35.9062C162.834 35.4896 162.687 34.964 162.687 34.3295V23.4773ZM169.214 37V26.0909H170.89V37H169.214ZM170.066 24.2727C169.739 24.2727 169.458 24.1615 169.221 23.9389C168.989 23.7164 168.873 23.4489 168.873 23.1364C168.873 22.8239 168.989 22.5563 169.221 22.3338C169.458 22.1113 169.739 22 170.066 22C170.393 22 170.672 22.1113 170.904 22.3338C171.141 22.5563 171.259 22.8239 171.259 23.1364C171.259 23.4489 171.141 23.7164 170.904 23.9389C170.672 24.1615 170.393 24.2727 170.066 24.2727ZM178.392 37.2273C177.407 37.2273 176.543 36.9929 175.799 36.5241C175.061 36.0554 174.483 35.3996 174.066 34.5568C173.654 33.714 173.449 32.7292 173.449 31.6023C173.449 30.4659 173.654 29.474 174.066 28.6264C174.483 27.7789 175.061 27.1207 175.799 26.652C176.543 26.1832 177.407 25.9489 178.392 25.9489C179.377 25.9489 180.238 26.1832 180.977 26.652C181.72 27.1207 182.298 27.7789 182.71 28.6264C183.127 29.474 183.335 30.4659 183.335 31.6023C183.335 32.7292 183.127 33.714 182.71 34.5568C182.298 35.3996 181.72 36.0554 180.977 36.5241C180.238 36.9929 179.377 37.2273 178.392 37.2273ZM178.392 35.7216C179.14 35.7216 179.755 35.5298 180.238 35.1463C180.721 34.7628 181.079 34.2585 181.311 33.6335C181.543 33.0085 181.659 32.3314 181.659 31.6023C181.659 30.8731 181.543 30.1937 181.311 29.5639C181.079 28.9342 180.721 28.4252 180.238 28.0369C179.755 27.6487 179.14 27.4545 178.392 27.4545C177.644 27.4545 177.028 27.6487 176.545 28.0369C176.062 28.4252 175.705 28.9342 175.473 29.5639C175.241 30.1937 175.125 30.8731 175.125 31.6023C175.125 32.3314 175.241 33.0085 175.473 33.6335C175.705 34.2585 176.062 34.7628 176.545 35.1463C177.028 35.5298 177.644 35.7216 178.392 35.7216ZM187.57 30.4375V37H185.893V26.0909H187.513V27.7955H187.655C187.911 27.2415 188.299 26.7964 188.82 26.4602C189.34 26.1193 190.013 25.9489 190.837 25.9489C191.575 25.9489 192.222 26.1004 192.776 26.4034C193.33 26.7017 193.76 27.1562 194.068 27.767C194.376 28.3731 194.53 29.1402 194.53 30.0682V37H192.854V30.1818C192.854 29.3248 192.631 28.6572 192.186 28.179C191.741 27.696 191.13 27.4545 190.354 27.4545C189.819 27.4545 189.34 27.5705 188.919 27.8026C188.502 28.0346 188.173 28.3731 187.932 28.8182C187.69 29.2633 187.57 29.803 187.57 30.4375Z" fill="#D1D1D1"/>
<g clip-path="url(#clip0_84505_2214)">
<path d="M433.9 95V96.69C433.902 97.318 433.779 97.94 433.538 98.5202C433.298 99.1004 432.945 99.6271 432.5 100.07L420.07 112.5C419.627 112.945 419.1 113.298 418.52 113.538C417.94 113.779 417.318 113.902 416.69 113.9H415L433.9 95Z" fill="#D1D1D1"/>
<path d="M433.9 101.31V103C433.901 103.628 433.777 104.25 433.537 104.83C433.297 105.41 432.944 105.937 432.5 106.38L426.38 112.5C425.937 112.944 425.41 113.297 424.83 113.537C424.25 113.777 423.628 113.901 423 113.9H421.31L433.9 101.31Z" fill="#D1D1D1"/>
<path d="M433.9 107.43V109.12C433.9 109.748 433.777 110.37 433.537 110.95C433.297 111.53 432.944 112.057 432.5 112.5C432.056 112.944 431.53 113.297 430.949 113.537C430.369 113.777 429.748 113.901 429.12 113.9H427.43L433.9 107.43Z" fill="#D1D1D1"/>
</g>
<rect x="0.5" y="0.5" width="439" height="119" rx="9.5" stroke="#D1D1D1"/>
<defs>
<clipPath id="clip0_84505_2214">
<rect width="18.9" height="18.9" fill="white" transform="translate(415 95)"/>
</clipPath>
</defs>
</svg>
