<svg width="131" height="47" viewBox="0 0 131 47" fill="none" xmlns="http://www.w3.org/2000/svg">
<path d="M17.412 29.4658V17.8295H18.8211V28.2158H24.2302V29.4658H17.412ZM29.8893 29.6476C29.0484 29.6476 28.323 29.462 27.7132 29.0908C27.1071 28.7158 26.6393 28.1931 26.3097 27.5226C25.984 26.8484 25.8211 26.0643 25.8211 25.1704C25.8211 24.2764 25.984 23.4885 26.3097 22.8067C26.6393 22.1211 27.0976 21.587 27.6847 21.2045C28.2757 20.8181 28.9651 20.6249 29.7529 20.6249C30.2075 20.6249 30.6563 20.7007 31.0995 20.8522C31.5427 21.0037 31.9461 21.2499 32.3097 21.5908C32.6734 21.9279 32.9632 22.3749 33.1791 22.9317C33.395 23.4885 33.5029 24.1742 33.5029 24.9885V25.5567H26.7757V24.3976H32.1393C32.1393 23.9052 32.0408 23.4658 31.8438 23.0795C31.6507 22.6931 31.3741 22.3882 31.0143 22.1647C30.6582 21.9412 30.2378 21.8295 29.7529 21.8295C29.2188 21.8295 28.7567 21.962 28.3666 22.2272C27.9802 22.4885 27.6829 22.8295 27.4745 23.2499C27.2662 23.6704 27.162 24.1211 27.162 24.6022V25.3749C27.162 26.034 27.2757 26.5927 27.5029 27.051C27.734 27.5056 28.0541 27.8522 28.4632 28.0908C28.8722 28.3257 29.3476 28.4431 29.8893 28.4431C30.2416 28.4431 30.5597 28.3939 30.8438 28.2954C31.1317 28.1931 31.3798 28.0416 31.5882 27.8408C31.7965 27.6363 31.9575 27.3825 32.0711 27.0795L33.3666 27.4431C33.2302 27.8825 33.001 28.2689 32.6791 28.6022C32.3571 28.9317 31.9594 29.1893 31.4859 29.3749C31.0124 29.5567 30.4802 29.6476 29.8893 29.6476ZM39.0654 32.9204C38.4177 32.9204 37.8609 32.837 37.395 32.6704C36.9291 32.5075 36.5408 32.2916 36.2302 32.0226C35.9234 31.7575 35.6791 31.4734 35.4972 31.1704L36.5654 30.4204C36.6866 30.5795 36.8401 30.7613 37.0257 30.9658C37.2113 31.1742 37.4651 31.3541 37.787 31.5056C38.1128 31.6609 38.5389 31.7385 39.0654 31.7385C39.77 31.7385 40.3514 31.5681 40.8097 31.2272C41.2681 30.8863 41.4972 30.3522 41.4972 29.6249V27.8522H41.3836C41.2851 28.0113 41.145 28.2082 40.9632 28.4431C40.7851 28.6742 40.5276 28.8806 40.1904 29.0624C39.8571 29.2404 39.4063 29.3295 38.8382 29.3295C38.1336 29.3295 37.501 29.1628 36.9404 28.8295C36.3836 28.4961 35.9423 28.0113 35.6166 27.3749C35.2946 26.7385 35.1336 25.9658 35.1336 25.0567C35.1336 24.1628 35.2908 23.3844 35.6052 22.7215C35.9196 22.0548 36.3571 21.5397 36.9177 21.176C37.4783 20.8086 38.126 20.6249 38.8609 20.6249C39.4291 20.6249 39.8798 20.7196 40.2132 20.909C40.5503 21.0946 40.8079 21.3067 40.9859 21.5454C41.1677 21.7802 41.3079 21.9734 41.4063 22.1249H41.5427V20.7385H42.8382V29.7158C42.8382 30.4658 42.6677 31.0757 42.3268 31.5454C41.9897 32.0189 41.5351 32.3654 40.9632 32.5851C40.395 32.8086 39.7624 32.9204 39.0654 32.9204ZM39.02 28.1249C39.5579 28.1249 40.0124 28.0018 40.3836 27.7556C40.7548 27.5094 41.037 27.1552 41.2302 26.6931C41.4234 26.231 41.52 25.6779 41.52 25.034C41.52 24.4052 41.4253 23.8503 41.2359 23.3692C41.0465 22.8882 40.7662 22.5113 40.395 22.2385C40.0238 21.9658 39.5654 21.8295 39.02 21.8295C38.4518 21.8295 37.9783 21.9734 37.5995 22.2613C37.2245 22.5492 36.9423 22.9355 36.7529 23.4204C36.5673 23.9052 36.4745 24.4431 36.4745 25.034C36.4745 25.6401 36.5692 26.176 36.7586 26.642C36.9518 27.1041 37.2359 27.4677 37.6109 27.7329C37.9897 27.9942 38.4594 28.1249 39.02 28.1249ZM47.8609 29.6704C47.3079 29.6704 46.806 29.5662 46.3552 29.3579C45.9044 29.1457 45.5465 28.8408 45.2813 28.4431C45.0162 28.0416 44.8836 27.5567 44.8836 26.9885C44.8836 26.4885 44.9821 26.0832 45.1791 25.7726C45.376 25.4582 45.6393 25.212 45.9688 25.034C46.2984 24.856 46.662 24.7234 47.0597 24.6363C47.4613 24.5454 47.8647 24.4734 48.27 24.4204C48.8003 24.3522 49.2302 24.301 49.5597 24.267C49.8931 24.2291 50.1355 24.1666 50.287 24.0795C50.4423 23.9923 50.52 23.8408 50.52 23.6249V23.5795C50.52 23.0189 50.3666 22.5832 50.0597 22.2726C49.7567 21.962 49.2965 21.8067 48.6791 21.8067C48.0389 21.8067 47.537 21.9469 47.1734 22.2272C46.8097 22.5075 46.5541 22.8067 46.4063 23.1249L45.1336 22.6704C45.3609 22.1401 45.6639 21.7272 46.0427 21.4317C46.4253 21.1325 46.8419 20.9242 47.2927 20.8067C47.7472 20.6855 48.1942 20.6249 48.6336 20.6249C48.9139 20.6249 49.2359 20.659 49.5995 20.7272C49.9669 20.7916 50.3211 20.926 50.662 21.1306C51.0067 21.3351 51.2927 21.6439 51.52 22.0567C51.7472 22.4696 51.8609 23.0226 51.8609 23.7158V29.4658H50.52V28.284H50.4518C50.3609 28.4734 50.2094 28.676 49.9972 28.892C49.7851 29.1079 49.5029 29.2916 49.1507 29.4431C48.7984 29.5946 48.3685 29.6704 47.8609 29.6704ZM48.0654 28.4658C48.5957 28.4658 49.0427 28.3617 49.4063 28.1533C49.7738 27.945 50.0503 27.676 50.2359 27.3465C50.4253 27.017 50.52 26.6704 50.52 26.3067V25.0795C50.4632 25.1476 50.3382 25.2101 50.145 25.267C49.9556 25.32 49.7359 25.3673 49.4859 25.409C49.2397 25.4469 48.9991 25.481 48.7643 25.5113C48.5332 25.5378 48.3457 25.5605 48.2018 25.5795C47.8533 25.6249 47.5276 25.6988 47.2245 25.801C46.9253 25.8995 46.6829 26.0492 46.4972 26.2499C46.3154 26.4469 46.2245 26.7158 46.2245 27.0567C46.2245 27.5226 46.3969 27.8749 46.7416 28.1135C47.0901 28.3484 47.5313 28.4658 48.0654 28.4658ZM55.6492 17.8295V29.4658H54.3083V17.8295H55.6492ZM72.0143 17.8295V29.4658H70.6507L64.3097 20.3295H64.1961V29.4658H62.787V17.8295H64.1507L70.5143 26.9885H70.6279V17.8295H72.0143ZM78.1975 29.6476C77.4097 29.6476 76.7184 29.4601 76.1237 29.0851C75.5328 28.7101 75.0706 28.1855 74.7373 27.5113C74.4078 26.837 74.243 26.0492 74.243 25.1476C74.243 24.2385 74.4078 23.445 74.7373 22.767C75.0706 22.0889 75.5328 21.5624 76.1237 21.1874C76.7184 20.8124 77.4097 20.6249 78.1975 20.6249C78.9854 20.6249 79.6748 20.8124 80.2657 21.1874C80.8604 21.5624 81.3225 22.0889 81.6521 22.767C81.9854 23.445 82.1521 24.2385 82.1521 25.1476C82.1521 26.0492 81.9854 26.837 81.6521 27.5113C81.3225 28.1855 80.8604 28.7101 80.2657 29.0851C79.6748 29.4601 78.9854 29.6476 78.1975 29.6476ZM78.1975 28.4431C78.796 28.4431 79.2884 28.2897 79.6748 27.9829C80.0612 27.676 80.3472 27.2726 80.5328 26.7726C80.7184 26.2726 80.8112 25.731 80.8112 25.1476C80.8112 24.5643 80.7184 24.0207 80.5328 23.517C80.3472 23.0132 80.0612 22.606 79.6748 22.2954C79.2884 21.9848 78.796 21.8295 78.1975 21.8295C77.599 21.8295 77.1066 21.9848 76.7203 22.2954C76.3339 22.606 76.0479 23.0132 75.8623 23.517C75.6767 24.0207 75.5839 24.5643 75.5839 25.1476C75.5839 25.731 75.6767 26.2726 75.8623 26.7726C76.0479 27.2726 76.3339 27.676 76.7203 27.9829C77.1066 28.2897 77.599 28.4431 78.1975 28.4431ZM87.9944 20.7385V21.8749H83.4717V20.7385H87.9944ZM84.7899 18.6476H86.1308V26.9658C86.1308 27.3446 86.1857 27.6287 86.2955 27.8181C86.4092 28.0037 86.5531 28.1287 86.7274 28.1931C86.9054 28.2537 87.0929 28.284 87.2899 28.284C87.4376 28.284 87.5588 28.2764 87.6535 28.2613C87.7482 28.2423 87.824 28.2272 87.8808 28.2158L88.1535 29.4204C88.0626 29.4545 87.9357 29.4885 87.7728 29.5226C87.6099 29.5605 87.4035 29.5795 87.1535 29.5795C86.7747 29.5795 86.4035 29.498 86.0399 29.3351C85.68 29.1723 85.3808 28.9242 85.1421 28.5908C84.9073 28.2575 84.7899 27.837 84.7899 27.3295V18.6476ZM90.0115 29.4658V20.7385H91.3524V29.4658H90.0115ZM90.6933 19.284C90.4319 19.284 90.2065 19.195 90.0171 19.017C89.8315 18.8389 89.7387 18.6249 89.7387 18.3749C89.7387 18.1249 89.8315 17.9109 90.0171 17.7329C90.2065 17.5548 90.4319 17.4658 90.6933 17.4658C90.9546 17.4658 91.1781 17.5548 91.3637 17.7329C91.5531 17.9109 91.6478 18.1249 91.6478 18.3749C91.6478 18.6249 91.5531 18.8389 91.3637 19.017C91.1781 19.195 90.9546 19.284 90.6933 19.284ZM97.3538 29.6476C96.5356 29.6476 95.8311 29.4545 95.2401 29.0681C94.6492 28.6817 94.1947 28.1495 93.8765 27.4715C93.5583 26.7935 93.3992 26.0189 93.3992 25.1476C93.3992 24.2613 93.5621 23.4791 93.8879 22.801C94.2174 22.1192 94.6758 21.587 95.2629 21.2045C95.8538 20.8181 96.5432 20.6249 97.3311 20.6249C97.9447 20.6249 98.4977 20.7385 98.9901 20.9658C99.4826 21.1931 99.886 21.5113 100.2 21.9204C100.515 22.3295 100.71 22.8067 100.786 23.3522H99.4447C99.3424 22.9545 99.1151 22.6022 98.7629 22.2954C98.4144 21.9848 97.9447 21.8295 97.3538 21.8295C96.8311 21.8295 96.3727 21.9658 95.9788 22.2385C95.5886 22.5075 95.2837 22.8882 95.064 23.3806C94.8481 23.8692 94.7401 24.4431 94.7401 25.1022C94.7401 25.7764 94.8462 26.3635 95.0583 26.8635C95.2742 27.3635 95.5773 27.7518 95.9674 28.0283C96.3614 28.3048 96.8235 28.4431 97.3538 28.4431C97.7023 28.4431 98.0186 28.3825 98.3026 28.2613C98.5867 28.1401 98.8273 27.9658 99.0242 27.7385C99.2212 27.5113 99.3614 27.2385 99.4447 26.9204H100.786C100.71 27.4355 100.522 27.8995 100.223 28.3124C99.9276 28.7215 99.5356 29.0473 99.047 29.2897C98.5621 29.5283 97.9977 29.6476 97.3538 29.6476ZM106.405 29.6476C105.564 29.6476 104.839 29.462 104.229 29.0908C103.623 28.7158 103.155 28.1931 102.825 27.5226C102.5 26.8484 102.337 26.0643 102.337 25.1704C102.337 24.2764 102.5 23.4885 102.825 22.8067C103.155 22.1211 103.613 21.587 104.2 21.2045C104.791 20.8181 105.481 20.6249 106.269 20.6249C106.723 20.6249 107.172 20.7007 107.615 20.8522C108.058 21.0037 108.462 21.2499 108.825 21.5908C109.189 21.9279 109.479 22.3749 109.695 22.9317C109.911 23.4885 110.019 24.1742 110.019 24.9885V25.5567H103.291V24.3976H108.655C108.655 23.9052 108.556 23.4658 108.359 23.0795C108.166 22.6931 107.89 22.3882 107.53 22.1647C107.174 21.9412 106.753 21.8295 106.269 21.8295C105.734 21.8295 105.272 21.962 104.882 22.2272C104.496 22.4885 104.198 22.8295 103.99 23.2499C103.782 23.6704 103.678 24.1211 103.678 24.6022V25.3749C103.678 26.034 103.791 26.5927 104.019 27.051C104.25 27.5056 104.57 27.8522 104.979 28.0908C105.388 28.3257 105.863 28.4431 106.405 28.4431C106.757 28.4431 107.075 28.3939 107.359 28.2954C107.647 28.1931 107.895 28.0416 108.104 27.8408C108.312 27.6363 108.473 27.3825 108.587 27.0795L109.882 27.4431C109.746 27.8825 109.517 28.2689 109.195 28.6022C108.873 28.9317 108.475 29.1893 108.002 29.3749C107.528 29.5567 106.996 29.6476 106.405 29.6476Z" fill="#CDCDCD"/>
</svg>
