<svg width="131" height="47" viewBox="0 0 131 47" fill="none" xmlns="http://www.w3.org/2000/svg">
<path d="M17.412 29.4658V17.8295H18.8211V28.2158H24.2302V29.4658H17.412ZM29.7757 29.6476C28.9878 29.6476 28.2965 29.4601 27.7018 29.0851C27.1109 28.7101 26.6488 28.1855 26.3154 27.5113C25.9859 26.837 25.8211 26.0492 25.8211 25.1476C25.8211 24.2385 25.9859 23.445 26.3154 22.767C26.6488 22.0889 27.1109 21.5624 27.7018 21.1874C28.2965 20.8124 28.9878 20.6249 29.7757 20.6249C30.5635 20.6249 31.2529 20.8124 31.8438 21.1874C32.4385 21.5624 32.9007 22.0889 33.2302 22.767C33.5635 23.445 33.7302 24.2385 33.7302 25.1476C33.7302 26.0492 33.5635 26.837 33.2302 27.5113C32.9007 28.1855 32.4385 28.7101 31.8438 29.0851C31.2529 29.4601 30.5635 29.6476 29.7757 29.6476ZM29.7757 28.4431C30.3741 28.4431 30.8666 28.2897 31.2529 27.9829C31.6393 27.676 31.9253 27.2726 32.1109 26.7726C32.2965 26.2726 32.3893 25.731 32.3893 25.1476C32.3893 24.5643 32.2965 24.0207 32.1109 23.517C31.9253 23.0132 31.6393 22.606 31.2529 22.2954C30.8666 21.9848 30.3741 21.8295 29.7757 21.8295C29.1772 21.8295 28.6847 21.9848 28.2984 22.2954C27.912 22.606 27.626 23.0132 27.4404 23.517C27.2548 24.0207 27.162 24.5643 27.162 25.1476C27.162 25.731 27.2548 26.2726 27.4404 26.7726C27.626 27.2726 27.912 27.676 28.2984 27.9829C28.6847 28.2897 29.1772 28.4431 29.7757 28.4431ZM39.2998 32.9204C38.6521 32.9204 38.0953 32.837 37.6294 32.6704C37.1634 32.5075 36.7752 32.2916 36.4646 32.0226C36.1578 31.7575 35.9134 31.4734 35.7316 31.1704L36.7998 30.4204C36.921 30.5795 37.0744 30.7613 37.26 30.9658C37.4456 31.1742 37.6994 31.3541 38.0214 31.5056C38.3472 31.6609 38.7733 31.7385 39.2998 31.7385C40.0044 31.7385 40.5858 31.5681 41.0441 31.2272C41.5025 30.8863 41.7316 30.3522 41.7316 29.6249V27.8522H41.618C41.5195 28.0113 41.3794 28.2082 41.1975 28.4431C41.0195 28.6742 40.7619 28.8806 40.4248 29.0624C40.0915 29.2404 39.6407 29.3295 39.0725 29.3295C38.368 29.3295 37.7354 29.1628 37.1748 28.8295C36.618 28.4961 36.1767 28.0113 35.8509 27.3749C35.529 26.7385 35.368 25.9658 35.368 25.0567C35.368 24.1628 35.5252 23.3844 35.8396 22.7215C36.154 22.0548 36.5915 21.5397 37.1521 21.176C37.7127 20.8086 38.3604 20.6249 39.0953 20.6249C39.6634 20.6249 40.1142 20.7196 40.4475 20.909C40.7847 21.0946 41.0422 21.3067 41.2203 21.5454C41.4021 21.7802 41.5422 21.9734 41.6407 22.1249H41.7771V20.7385H43.0725V29.7158C43.0725 30.4658 42.9021 31.0757 42.5612 31.5454C42.224 32.0189 41.7695 32.3654 41.1975 32.5851C40.6294 32.8086 39.9968 32.9204 39.2998 32.9204ZM39.2544 28.1249C39.7922 28.1249 40.2468 28.0018 40.618 27.7556C40.9892 27.5094 41.2714 27.1552 41.4646 26.6931C41.6578 26.231 41.7544 25.6779 41.7544 25.034C41.7544 24.4052 41.6597 23.8503 41.4703 23.3692C41.2809 22.8882 41.0006 22.5113 40.6294 22.2385C40.2581 21.9658 39.7998 21.8295 39.2544 21.8295C38.6862 21.8295 38.2127 21.9734 37.8339 22.2613C37.4589 22.5492 37.1767 22.9355 36.9873 23.4204C36.8017 23.9052 36.7089 24.4431 36.7089 25.034C36.7089 25.6401 36.8036 26.176 36.993 26.642C37.1862 27.1041 37.4703 27.4677 37.8453 27.7329C38.224 27.9942 38.6937 28.1249 39.2544 28.1249ZM53.5725 29.6476C52.7847 29.6476 52.0934 29.4601 51.4987 29.0851C50.9078 28.7101 50.4456 28.1855 50.1123 27.5113C49.7828 26.837 49.618 26.0492 49.618 25.1476C49.618 24.2385 49.7828 23.445 50.1123 22.767C50.4456 22.0889 50.9078 21.5624 51.4987 21.1874C52.0934 20.8124 52.7847 20.6249 53.5725 20.6249C54.3604 20.6249 55.0498 20.8124 55.6407 21.1874C56.2354 21.5624 56.6975 22.0889 57.0271 22.767C57.3604 23.445 57.5271 24.2385 57.5271 25.1476C57.5271 26.0492 57.3604 26.837 57.0271 27.5113C56.6975 28.1855 56.2354 28.7101 55.6407 29.0851C55.0498 29.4601 54.3604 29.6476 53.5725 29.6476ZM53.5725 28.4431C54.171 28.4431 54.6634 28.2897 55.0498 27.9829C55.4362 27.676 55.7222 27.2726 55.9078 26.7726C56.0934 26.2726 56.1862 25.731 56.1862 25.1476C56.1862 24.5643 56.0934 24.0207 55.9078 23.517C55.7222 23.0132 55.4362 22.606 55.0498 22.2954C54.6634 21.9848 54.171 21.8295 53.5725 21.8295C52.974 21.8295 52.4816 21.9848 52.0953 22.2954C51.7089 22.606 51.4229 23.0132 51.2373 23.517C51.0517 24.0207 50.9589 24.5643 50.9589 25.1476C50.9589 25.731 51.0517 26.2726 51.2373 26.7726C51.4229 27.2726 51.7089 27.676 52.0953 27.9829C52.4816 28.2897 52.974 28.4431 53.5725 28.4431ZM65.074 25.8976V20.7385H66.4149V29.4658H65.074V27.9885H64.983C64.7785 28.4317 64.4603 28.8086 64.0285 29.1192C63.5967 29.426 63.0512 29.5795 62.3921 29.5795C61.8467 29.5795 61.3618 29.4601 60.9376 29.2215C60.5133 28.9791 60.18 28.6154 59.9376 28.1306C59.6952 27.642 59.574 27.0264 59.574 26.284V20.7385H60.9149V26.1931C60.9149 26.8295 61.0929 27.337 61.449 27.7158C61.8088 28.0946 62.2671 28.284 62.824 28.284C63.1573 28.284 63.4963 28.1988 63.841 28.0283C64.1895 27.8579 64.4811 27.5965 64.716 27.2442C64.9546 26.892 65.074 26.4431 65.074 25.8976ZM72.6663 20.7385V21.8749H68.1436V20.7385H72.6663ZM69.4617 18.6476H70.8026V26.9658C70.8026 27.3446 70.8576 27.6287 70.9674 27.8181C71.0811 28.0037 71.225 28.1287 71.3992 28.1931C71.5773 28.2537 71.7648 28.284 71.9617 28.284C72.1095 28.284 72.2307 28.2764 72.3254 28.2613C72.4201 28.2423 72.4958 28.2272 72.5526 28.2158L72.8254 29.4204C72.7345 29.4545 72.6076 29.4885 72.4447 29.5226C72.2818 29.5605 72.0754 29.5795 71.8254 29.5795C71.4466 29.5795 71.0754 29.498 70.7117 29.3351C70.3519 29.1723 70.0526 28.9242 69.814 28.5908C69.5792 28.2575 69.4617 27.837 69.4617 27.3295V18.6476Z" fill="#CDCDCD"/>
</svg>
