<svg width="131" height="47" viewBox="0 0 131 47" fill="none" xmlns="http://www.w3.org/2000/svg">
<path d="M17.412 29.4658V17.8295H21.3438C22.2567 17.8295 23.0029 17.9942 23.5825 18.3238C24.1658 18.6495 24.5976 19.0908 24.8779 19.6476C25.1582 20.2045 25.2984 20.8257 25.2984 21.5113C25.2984 22.1969 25.1582 22.82 24.8779 23.3806C24.6014 23.9412 24.1734 24.3882 23.5938 24.7215C23.0143 25.051 22.2719 25.2158 21.3666 25.2158H18.5484V23.9658H21.3211C21.9461 23.9658 22.448 23.8579 22.8268 23.642C23.2056 23.426 23.4802 23.1344 23.6507 22.767C23.8249 22.3957 23.912 21.9772 23.912 21.5113C23.912 21.0454 23.8249 20.6287 23.6507 20.2613C23.4802 19.8939 23.2037 19.606 22.8211 19.3976C22.4385 19.1855 21.931 19.0795 21.2984 19.0795H18.8211V29.4658H17.412ZM27.3865 29.4658V20.7385H28.6819V22.0567H28.7728C28.9319 21.6249 29.2198 21.2745 29.6365 21.0056C30.0531 20.7367 30.5228 20.6022 31.0455 20.6022C31.144 20.6022 31.2671 20.6041 31.4149 20.6079C31.5626 20.6117 31.6743 20.6173 31.7501 20.6249V21.9885C31.7046 21.9772 31.6005 21.9601 31.4376 21.9374C31.2785 21.9109 31.1099 21.8976 30.9319 21.8976C30.5077 21.8976 30.1289 21.9867 29.7955 22.1647C29.466 22.3389 29.2046 22.5814 29.0115 22.892C28.8221 23.1988 28.7274 23.5492 28.7274 23.9431V29.4658H27.3865ZM33.3396 29.4658V20.7385H34.6805V29.4658H33.3396ZM34.0214 19.284C33.76 19.284 33.5347 19.195 33.3453 19.017C33.1597 18.8389 33.0669 18.6249 33.0669 18.3749C33.0669 18.1249 33.1597 17.9109 33.3453 17.7329C33.5347 17.5548 33.76 17.4658 34.0214 17.4658C34.2828 17.4658 34.5062 17.5548 34.6919 17.7329C34.8812 17.9109 34.9759 18.1249 34.9759 18.3749C34.9759 18.6249 34.8812 18.8389 34.6919 19.017C34.5062 19.195 34.2828 19.284 34.0214 19.284ZM44.2728 20.7385L41.0455 29.4658H39.6819L36.4546 20.7385H37.9092L40.3183 27.6931H40.4092L42.8183 20.7385H44.2728ZM48.3453 29.6704C47.7922 29.6704 47.2903 29.5662 46.8396 29.3579C46.3888 29.1457 46.0309 28.8408 45.7657 28.4431C45.5006 28.0416 45.368 27.5567 45.368 26.9885C45.368 26.4885 45.4665 26.0832 45.6634 25.7726C45.8604 25.4582 46.1237 25.212 46.4532 25.034C46.7828 24.856 47.1464 24.7234 47.5441 24.6363C47.9456 24.5454 48.349 24.4734 48.7544 24.4204C49.2847 24.3522 49.7146 24.301 50.0441 24.267C50.3775 24.2291 50.6199 24.1666 50.7714 24.0795C50.9267 23.9923 51.0044 23.8408 51.0044 23.6249V23.5795C51.0044 23.0189 50.8509 22.5832 50.5441 22.2726C50.2411 21.962 49.7809 21.8067 49.1634 21.8067C48.5233 21.8067 48.0214 21.9469 47.6578 22.2272C47.2941 22.5075 47.0384 22.8067 46.8907 23.1249L45.618 22.6704C45.8453 22.1401 46.1483 21.7272 46.5271 21.4317C46.9097 21.1325 47.3263 20.9242 47.7771 20.8067C48.2316 20.6855 48.6786 20.6249 49.118 20.6249C49.3983 20.6249 49.7203 20.659 50.0839 20.7272C50.4513 20.7916 50.8055 20.926 51.1464 21.1306C51.4911 21.3351 51.7771 21.6439 52.0044 22.0567C52.2316 22.4696 52.3453 23.0226 52.3453 23.7158V29.4658H51.0044V28.284H50.9362C50.8453 28.4734 50.6937 28.676 50.4816 28.892C50.2695 29.1079 49.9873 29.2916 49.635 29.4431C49.2828 29.5946 48.8528 29.6704 48.3453 29.6704ZM48.5498 28.4658C49.0801 28.4658 49.5271 28.3617 49.8907 28.1533C50.2581 27.945 50.5347 27.676 50.7203 27.3465C50.9097 27.017 51.0044 26.6704 51.0044 26.3067V25.0795C50.9475 25.1476 50.8225 25.2101 50.6294 25.267C50.44 25.32 50.2203 25.3673 49.9703 25.409C49.724 25.4469 49.4835 25.481 49.2487 25.5113C49.0176 25.5378 48.8301 25.5605 48.6862 25.5795C48.3377 25.6249 48.0119 25.6988 47.7089 25.801C47.4097 25.8995 47.1672 26.0492 46.9816 26.2499C46.7998 26.4469 46.7089 26.7158 46.7089 27.0567C46.7089 27.5226 46.8812 27.8749 47.2259 28.1135C47.5744 28.3484 48.0157 28.4658 48.5498 28.4658ZM58.3382 29.6476C57.52 29.6476 56.8154 29.4545 56.2245 29.0681C55.6336 28.6817 55.1791 28.1495 54.8609 27.4715C54.5427 26.7935 54.3836 26.0189 54.3836 25.1476C54.3836 24.2613 54.5465 23.4791 54.8722 22.801C55.2018 22.1192 55.6601 21.587 56.2472 21.2045C56.8382 20.8181 57.5276 20.6249 58.3154 20.6249C58.9291 20.6249 59.4821 20.7385 59.9745 20.9658C60.4669 21.1931 60.8704 21.5113 61.1847 21.9204C61.4991 22.3295 61.6942 22.8067 61.77 23.3522H60.4291C60.3268 22.9545 60.0995 22.6022 59.7472 22.2954C59.3988 21.9848 58.9291 21.8295 58.3382 21.8295C57.8154 21.8295 57.3571 21.9658 56.9632 22.2385C56.573 22.5075 56.2681 22.8882 56.0484 23.3806C55.8325 23.8692 55.7245 24.4431 55.7245 25.1022C55.7245 25.7764 55.8306 26.3635 56.0427 26.8635C56.2586 27.3635 56.5616 27.7518 56.9518 28.0283C57.3457 28.3048 57.8079 28.4431 58.3382 28.4431C58.6866 28.4431 59.0029 28.3825 59.287 28.2613C59.5711 28.1401 59.8116 27.9658 60.0086 27.7385C60.2056 27.5113 60.3457 27.2385 60.4291 26.9204H61.77C61.6942 27.4355 61.5067 27.8995 61.2075 28.3124C60.912 28.7215 60.52 29.0473 60.0313 29.2897C59.5465 29.5283 58.9821 29.6476 58.3382 29.6476ZM64.5938 32.7385C64.3666 32.7385 64.1639 32.7196 63.9859 32.6817C63.8079 32.6476 63.6847 32.6135 63.6166 32.5795L63.9575 31.3976C64.2832 31.481 64.5711 31.5113 64.8211 31.4885C65.0711 31.4658 65.2927 31.3541 65.4859 31.1533C65.6829 30.9564 65.8628 30.6363 66.0257 30.1931L66.2757 29.5113L63.0484 20.7385H64.5029L66.912 27.6931H67.0029L69.412 20.7385H70.8666L67.162 30.7385C66.9954 31.1893 66.7889 31.5624 66.5427 31.8579C66.2965 32.1571 66.0105 32.3787 65.6847 32.5226C65.3628 32.6666 64.9991 32.7385 64.5938 32.7385ZM77.3183 29.4658V17.8295H81.2501C82.163 17.8295 82.9092 17.9942 83.4887 18.3238C84.0721 18.6495 84.5039 19.0908 84.7842 19.6476C85.0645 20.2045 85.2046 20.8257 85.2046 21.5113C85.2046 22.1969 85.0645 22.82 84.7842 23.3806C84.5077 23.9412 84.0796 24.3882 83.5001 24.7215C82.9205 25.051 82.1781 25.2158 81.2728 25.2158H78.4546V23.9658H81.2274C81.8524 23.9658 82.3543 23.8579 82.733 23.642C83.1118 23.426 83.3865 23.1344 83.5569 22.767C83.7311 22.3957 83.8183 21.9772 83.8183 21.5113C83.8183 21.0454 83.7311 20.6287 83.5569 20.2613C83.3865 19.8939 83.1099 19.606 82.7274 19.3976C82.3448 19.1855 81.8372 19.0795 81.2046 19.0795H78.7274V29.4658H77.3183ZM90.7444 29.6476C89.9565 29.6476 89.2652 29.4601 88.6705 29.0851C88.0796 28.7101 87.6175 28.1855 87.2842 27.5113C86.9546 26.837 86.7899 26.0492 86.7899 25.1476C86.7899 24.2385 86.9546 23.445 87.2842 22.767C87.6175 22.0889 88.0796 21.5624 88.6705 21.1874C89.2652 20.8124 89.9565 20.6249 90.7444 20.6249C91.5323 20.6249 92.2217 20.8124 92.8126 21.1874C93.4073 21.5624 93.8694 22.0889 94.199 22.767C94.5323 23.445 94.699 24.2385 94.699 25.1476C94.699 26.0492 94.5323 26.837 94.199 27.5113C93.8694 28.1855 93.4073 28.7101 92.8126 29.0851C92.2217 29.4601 91.5323 29.6476 90.7444 29.6476ZM90.7444 28.4431C91.3429 28.4431 91.8353 28.2897 92.2217 27.9829C92.608 27.676 92.894 27.2726 93.0796 26.7726C93.2652 26.2726 93.358 25.731 93.358 25.1476C93.358 24.5643 93.2652 24.0207 93.0796 23.517C92.894 23.0132 92.608 22.606 92.2217 22.2954C91.8353 21.9848 91.3429 21.8295 90.7444 21.8295C90.1459 21.8295 89.6535 21.9848 89.2671 22.2954C88.8808 22.606 88.5948 23.0132 88.4092 23.517C88.2236 24.0207 88.1308 24.5643 88.1308 25.1476C88.1308 25.731 88.2236 26.2726 88.4092 26.7726C88.5948 27.2726 88.8808 27.676 89.2671 27.9829C89.6535 28.2897 90.1459 28.4431 90.7444 28.4431ZM98.0867 17.8295V29.4658H96.7458V17.8295H98.0867ZM100.543 29.4658V20.7385H101.884V29.4658H100.543ZM101.225 19.284C100.963 19.284 100.738 19.195 100.548 19.017C100.363 18.8389 100.27 18.6249 100.27 18.3749C100.27 18.1249 100.363 17.9109 100.548 17.7329C100.738 17.5548 100.963 17.4658 101.225 17.4658C101.486 17.4658 101.709 17.5548 101.895 17.7329C102.084 17.9109 102.179 18.1249 102.179 18.3749C102.179 18.6249 102.084 18.8389 101.895 19.017C101.709 19.195 101.486 19.284 101.225 19.284ZM107.885 29.6476C107.067 29.6476 106.362 29.4545 105.771 29.0681C105.18 28.6817 104.726 28.1495 104.408 27.4715C104.09 26.7935 103.93 26.0189 103.93 25.1476C103.93 24.2613 104.093 23.4791 104.419 22.801C104.749 22.1192 105.207 21.587 105.794 21.2045C106.385 20.8181 107.074 20.6249 107.862 20.6249C108.476 20.6249 109.029 20.7385 109.521 20.9658C110.014 21.1931 110.417 21.5113 110.732 21.9204C111.046 22.3295 111.241 22.8067 111.317 23.3522H109.976C109.874 22.9545 109.646 22.6022 109.294 22.2954C108.946 21.9848 108.476 21.8295 107.885 21.8295C107.362 21.8295 106.904 21.9658 106.51 22.2385C106.12 22.5075 105.815 22.8882 105.595 23.3806C105.379 23.8692 105.271 24.4431 105.271 25.1022C105.271 25.7764 105.377 26.3635 105.59 26.8635C105.805 27.3635 106.109 27.7518 106.499 28.0283C106.893 28.3048 107.355 28.4431 107.885 28.4431C108.234 28.4431 108.55 28.3825 108.834 28.2613C109.118 28.1401 109.359 27.9658 109.555 27.7385C109.752 27.5113 109.893 27.2385 109.976 26.9204H111.317C111.241 27.4355 111.054 27.8995 110.754 28.3124C110.459 28.7215 110.067 29.0473 109.578 29.2897C109.093 29.5283 108.529 29.6476 107.885 29.6476ZM114.141 32.7385C113.913 32.7385 113.711 32.7196 113.533 32.6817C113.355 32.6476 113.232 32.6135 113.163 32.5795L113.504 31.3976C113.83 31.481 114.118 31.5113 114.368 31.4885C114.618 31.4658 114.84 31.3541 115.033 31.1533C115.23 30.9564 115.41 30.6363 115.573 30.1931L115.823 29.5113L112.595 20.7385H114.05L116.459 27.6931H116.55L118.959 20.7385H120.413L116.709 30.7385C116.542 31.1893 116.336 31.5624 116.09 31.8579C115.843 32.1571 115.557 32.3787 115.232 32.5226C114.91 32.6666 114.546 32.7385 114.141 32.7385Z" fill="#CDCDCD"/>
</svg>
