<svg width="626" height="91" viewBox="0 0 626 91" fill="none" xmlns="http://www.w3.org/2000/svg">
<path d="M13.4019 15.1364V59.5H4.02233V15.1364H13.4019ZM52.9566 26.2273V33.1591H32.4211V26.2273H52.9566ZM37.1218 59.5V23.8228C37.1218 21.4111 37.5911 19.411 38.5298 17.8224C39.4829 16.2339 40.7826 15.0425 42.4289 14.2482C44.0752 13.454 45.9454 13.0568 48.0394 13.0568C49.4546 13.0568 50.7471 13.1651 51.9169 13.3817C53.101 13.5984 53.982 13.7933 54.5596 13.9666L52.9133 20.8984C52.5523 20.7829 52.1046 20.6746 51.5703 20.5735C51.0504 20.4724 50.5161 20.4219 49.9673 20.4219C48.6098 20.4219 47.6639 20.7396 47.1296 21.375C46.5952 21.996 46.3281 22.8697 46.3281 23.9961V59.5H37.1218ZM72.4361 60.1499C69.0713 60.1499 66.1614 59.435 63.7064 58.0053C61.2658 56.5612 59.3812 54.5539 58.0526 51.9833C56.724 49.3983 56.0597 46.4018 56.0597 42.9936C56.0597 39.5566 56.724 36.5528 58.0526 33.9822C59.3812 31.3973 61.2658 29.3899 63.7064 27.9602C66.1614 26.5161 69.0713 25.794 72.4361 25.794C75.8009 25.794 78.7036 26.5161 81.1442 27.9602C83.5992 29.3899 85.491 31.3973 86.8196 33.9822C88.1482 36.5528 88.8125 39.5566 88.8125 42.9936C88.8125 46.4018 88.1482 49.3983 86.8196 51.9833C85.491 54.5539 83.5992 56.5612 81.1442 58.0053C78.7036 59.435 75.8009 60.1499 72.4361 60.1499ZM72.4794 53.0014C74.0102 53.0014 75.2883 52.5682 76.3136 51.7017C77.3389 50.8208 78.1116 49.6222 78.6314 48.1058C79.1658 46.5895 79.4329 44.8638 79.4329 42.9286C79.4329 40.9935 79.1658 39.2678 78.6314 37.7514C78.1116 36.2351 77.3389 35.0365 76.3136 34.1555C75.2883 33.2746 74.0102 32.8342 72.4794 32.8342C70.9342 32.8342 69.6345 33.2746 68.5803 34.1555C67.5405 35.0365 66.7535 36.2351 66.2192 37.7514C65.6993 39.2678 65.4393 40.9935 65.4393 42.9286C65.4393 44.8638 65.6993 46.5895 66.2192 48.1058C66.7535 49.6222 67.5405 50.8208 68.5803 51.7017C69.6345 52.5682 70.9342 53.0014 72.4794 53.0014ZM94.8129 59.5V26.2273H103.759V32.0327H104.106C104.712 29.9676 105.731 28.4079 107.16 27.3537C108.59 26.285 110.236 25.7507 112.099 25.7507C112.561 25.7507 113.059 25.7796 113.594 25.8374C114.128 25.8951 114.597 25.9745 115.002 26.0756V34.2638C114.569 34.1339 113.969 34.0183 113.204 33.9173C112.438 33.8162 111.738 33.7656 111.103 33.7656C109.745 33.7656 108.532 34.0617 107.463 34.6538C106.409 35.2314 105.572 36.0401 104.951 37.0799C104.344 38.1197 104.041 39.3183 104.041 40.6758V59.5H94.8129ZM133.214 72.6705C130.225 72.6705 127.661 72.2589 125.524 71.4357C123.401 70.627 121.712 69.5223 120.455 68.1214C119.199 66.7206 118.383 65.1465 118.007 63.3991L126.542 62.2511C126.802 62.9154 127.214 63.5363 127.777 64.114C128.34 64.6916 129.084 65.1538 130.008 65.5004C130.947 65.8614 132.088 66.0419 133.431 66.0419C135.438 66.0419 137.092 65.5509 138.391 64.5689C139.705 63.6013 140.363 61.9767 140.363 59.695V53.608H139.973C139.568 54.5322 138.962 55.4059 138.153 56.229C137.344 57.0522 136.305 57.7237 135.034 58.2436C133.763 58.7635 132.247 59.0234 130.485 59.0234C127.986 59.0234 125.712 58.4458 123.661 57.2905C121.625 56.1207 120 54.3372 118.787 51.94C117.589 49.5283 116.989 46.4812 116.989 42.7986C116.989 39.0295 117.603 35.8813 118.831 33.354C120.058 30.8268 121.69 28.935 123.726 27.6786C125.777 26.4222 128.022 25.794 130.463 25.794C132.326 25.794 133.886 26.1117 135.142 26.7472C136.398 27.3681 137.409 28.148 138.175 29.0866C138.955 30.0109 139.554 30.9207 139.973 31.816H140.319V26.2273H149.482V59.8249C149.482 62.6554 148.789 65.0238 147.403 66.93C146.016 68.8363 144.096 70.266 141.641 71.2191C139.2 72.1867 136.391 72.6705 133.214 72.6705ZM133.409 52.0916C134.896 52.0916 136.153 51.7234 137.178 50.9869C138.218 50.2359 139.012 49.1673 139.561 47.7809C140.124 46.3801 140.406 44.7049 140.406 42.7553C140.406 40.8058 140.131 39.1161 139.583 37.6864C139.034 36.2423 138.24 35.1231 137.2 34.3288C136.16 33.5346 134.896 33.1374 133.409 33.1374C131.893 33.1374 130.615 33.549 129.575 34.3722C128.535 35.1809 127.748 36.3073 127.214 37.7514C126.679 39.1955 126.412 40.8635 126.412 42.7553C126.412 44.676 126.679 46.3368 127.214 47.7376C127.763 49.1239 128.55 50.1998 129.575 50.9652C130.615 51.7161 131.893 52.0916 133.409 52.0916ZM171.859 60.1499C168.494 60.1499 165.584 59.435 163.129 58.0053C160.689 56.5612 158.804 54.5539 157.475 51.9833C156.147 49.3983 155.483 46.4018 155.483 42.9936C155.483 39.5566 156.147 36.5528 157.475 33.9822C158.804 31.3973 160.689 29.3899 163.129 27.9602C165.584 26.5161 168.494 25.794 171.859 25.794C175.224 25.794 178.126 26.5161 180.567 27.9602C183.022 29.3899 184.914 31.3973 186.242 33.9822C187.571 36.5528 188.235 39.5566 188.235 42.9936C188.235 46.4018 187.571 49.3983 186.242 51.9833C184.914 54.5539 183.022 56.5612 180.567 58.0053C178.126 59.435 175.224 60.1499 171.859 60.1499ZM171.902 53.0014C173.433 53.0014 174.711 52.5682 175.736 51.7017C176.762 50.8208 177.534 49.6222 178.054 48.1058C178.589 46.5895 178.856 44.8638 178.856 42.9286C178.856 40.9935 178.589 39.2678 178.054 37.7514C177.534 36.2351 176.762 35.0365 175.736 34.1555C174.711 33.2746 173.433 32.8342 171.902 32.8342C170.357 32.8342 169.057 33.2746 168.003 34.1555C166.963 35.0365 166.176 36.2351 165.642 37.7514C165.122 39.2678 164.862 40.9935 164.862 42.9286C164.862 44.8638 165.122 46.5895 165.642 48.1058C166.176 49.6222 166.963 50.8208 168.003 51.7017C169.057 52.5682 170.357 53.0014 171.902 53.0014ZM211.934 26.2273V33.1591H191.896V26.2273H211.934ZM196.445 18.2557H205.673V49.2756C205.673 50.1276 205.803 50.7919 206.063 51.2685C206.323 51.7306 206.684 52.0555 207.146 52.2433C207.623 52.431 208.172 52.5249 208.793 52.5249C209.226 52.5249 209.659 52.4888 210.092 52.4165C210.526 52.3299 210.858 52.2649 211.089 52.2216L212.54 59.0884C212.078 59.2328 211.428 59.3989 210.591 59.5866C209.753 59.7888 208.735 59.9116 207.536 59.9549C205.312 60.0415 203.363 59.7455 201.687 59.0668C200.027 58.388 198.734 57.3338 197.81 55.9041C196.886 54.4744 196.431 52.6693 196.445 50.4886V18.2557ZM232.063 59.5V26.2273H240.858V32.0977H241.248C241.941 30.1481 243.096 28.6101 244.713 27.4837C246.331 26.3572 248.266 25.794 250.519 25.794C252.801 25.794 254.743 26.3645 256.346 27.5053C257.949 28.6317 259.018 30.1625 259.552 32.0977H259.898C260.577 30.1914 261.805 28.6678 263.581 27.527C265.372 26.3717 267.487 25.794 269.928 25.794C273.033 25.794 275.553 26.7833 277.488 28.7617C279.438 30.7257 280.412 33.5129 280.412 37.1232V59.5H271.206V38.9428C271.206 37.0943 270.715 35.708 269.733 34.7837C268.751 33.8595 267.523 33.3974 266.05 33.3974C264.375 33.3974 263.068 33.9317 262.13 35.0004C261.191 36.0546 260.722 37.4482 260.722 39.1811V59.5H251.775V38.7479C251.775 37.116 251.306 35.8163 250.367 34.8487C249.443 33.8812 248.223 33.3974 246.706 33.3974C245.681 33.3974 244.757 33.6573 243.934 34.1772C243.125 34.6826 242.482 35.3975 242.006 36.3217C241.529 37.2315 241.291 38.3002 241.291 39.5277V59.5H232.063ZM292.207 71.9773C291.038 71.9773 289.94 71.8834 288.915 71.6957C287.904 71.5224 287.066 71.2985 286.402 71.0241L288.481 64.1357C289.564 64.4678 290.539 64.6483 291.406 64.6772C292.287 64.7061 293.045 64.5039 293.68 64.0707C294.33 63.6374 294.857 62.9009 295.262 61.8612L295.803 60.4531L283.867 26.2273H293.572L300.46 50.6619H300.807L307.761 26.2273H317.53L304.598 63.0959C303.977 64.8866 303.132 66.4463 302.063 67.7749C301.009 69.1179 299.673 70.1505 298.056 70.8725C296.439 71.609 294.489 71.9773 292.207 71.9773ZM336.371 71.9773V26.2273H345.469V31.816H345.88C346.284 30.9207 346.869 30.0109 347.635 29.0866C348.415 28.148 349.425 27.3681 350.667 26.7472C351.924 26.1117 353.483 25.794 355.346 25.794C357.773 25.794 360.011 26.4295 362.062 27.7003C364.112 28.9567 365.751 30.8557 366.979 33.3974C368.206 35.9246 368.82 39.0945 368.82 42.907C368.82 46.6184 368.221 49.7521 367.022 52.3082C365.838 54.8499 364.221 56.7778 362.17 58.092C360.134 59.3917 357.852 60.0415 355.325 60.0415C353.534 60.0415 352.01 59.7455 350.754 59.1534C349.512 58.5613 348.494 57.8176 347.7 56.9222C346.905 56.0124 346.299 55.0954 345.88 54.1712H345.599V71.9773H336.371ZM345.404 42.8636C345.404 44.8421 345.678 46.5678 346.227 48.0408C346.775 49.5138 347.57 50.6619 348.61 51.4851C349.649 52.2938 350.913 52.6982 352.4 52.6982C353.902 52.6982 355.173 52.2866 356.213 51.4634C357.253 50.6258 358.04 49.4705 358.574 47.9975C359.123 46.5101 359.397 44.7988 359.397 42.8636C359.397 40.9429 359.13 39.2533 358.596 37.7947C358.061 36.3362 357.274 35.1953 356.235 34.3722C355.195 33.549 353.917 33.1374 352.4 33.1374C350.898 33.1374 349.628 33.5346 348.588 34.3288C347.563 35.1231 346.775 36.2495 346.227 37.7081C345.678 39.1667 345.404 40.8852 345.404 42.8636ZM384.46 60.1282C382.337 60.1282 380.445 59.7599 378.785 59.0234C377.124 58.2725 375.81 57.1677 374.842 55.7092C373.889 54.2362 373.412 52.4021 373.412 50.207C373.412 48.3585 373.752 46.8061 374.431 45.5497C375.109 44.2933 376.034 43.2824 377.203 42.517C378.373 41.7517 379.702 41.174 381.189 40.7841C382.691 40.3942 384.265 40.1198 385.911 39.9609C387.846 39.7588 389.406 39.571 390.59 39.3977C391.775 39.21 392.634 38.9356 393.168 38.5746C393.702 38.2135 393.97 37.6792 393.97 36.9716V36.8416C393.97 35.4697 393.536 34.4083 392.67 33.6573C391.818 32.9064 390.605 32.5309 389.031 32.5309C387.37 32.5309 386.049 32.8991 385.067 33.6357C384.085 34.3577 383.435 35.2675 383.117 36.3651L374.582 35.6719C375.015 33.6501 375.867 31.9027 377.138 30.4297C378.409 28.9422 380.048 27.8014 382.056 27.0071C384.077 26.1984 386.417 25.794 389.074 25.794C390.922 25.794 392.692 26.0107 394.381 26.4439C396.085 26.8771 397.594 27.5486 398.909 28.4584C400.237 29.3683 401.284 30.538 402.049 31.9677C402.815 33.3829 403.198 35.0798 403.198 37.0582V59.5H394.446V54.886H394.186C393.652 55.9258 392.937 56.8428 392.042 57.6371C391.146 58.4169 390.07 59.0307 388.814 59.4783C387.558 59.9116 386.106 60.1282 384.46 60.1282ZM387.103 53.7596C388.46 53.7596 389.659 53.4924 390.699 52.9581C391.738 52.4093 392.554 51.6728 393.146 50.7486C393.739 49.8243 394.035 48.7773 394.035 47.6076V44.0767C393.746 44.2644 393.349 44.4377 392.843 44.5966C392.352 44.741 391.796 44.8782 391.175 45.0082C390.554 45.1237 389.933 45.232 389.312 45.3331C388.691 45.4197 388.128 45.4992 387.623 45.5714C386.54 45.7302 385.594 45.983 384.785 46.3295C383.976 46.6761 383.348 47.1455 382.9 47.7376C382.453 48.3152 382.229 49.0373 382.229 49.9038C382.229 51.1602 382.684 52.1205 383.594 52.7848C384.518 53.4347 385.688 53.7596 387.103 53.7596ZM438.041 35.7152L429.593 36.2351C429.448 35.513 429.138 34.8632 428.661 34.2855C428.185 33.6934 427.556 33.2241 426.777 32.8775C426.011 32.5165 425.094 32.3359 424.026 32.3359C422.596 32.3359 421.39 32.6392 420.408 33.2457C419.426 33.8378 418.935 34.6321 418.935 35.6285C418.935 36.4228 419.253 37.0943 419.888 37.6431C420.524 38.1919 421.614 38.6323 423.159 38.9645L429.181 40.1776C432.416 40.8419 434.828 41.9105 436.416 43.3835C438.005 44.8565 438.799 46.7917 438.799 49.1889C438.799 51.3696 438.156 53.283 436.871 54.9293C435.6 56.5756 433.853 57.8609 431.629 58.7852C429.419 59.695 426.87 60.1499 423.982 60.1499C419.578 60.1499 416.068 59.2328 413.455 57.3988C410.855 55.5503 409.332 53.0375 408.884 49.8604L417.96 49.3839C418.235 50.7269 418.899 51.7522 419.953 52.4599C421.007 53.1531 422.358 53.4996 424.004 53.4996C425.621 53.4996 426.921 53.1892 427.903 52.5682C428.899 51.9328 429.405 51.1168 429.419 50.1204C429.405 49.2828 429.051 48.5968 428.358 48.0625C427.665 47.5137 426.596 47.0949 425.152 46.8061L419.39 45.658C416.141 45.0082 413.722 43.8817 412.133 42.2788C410.559 40.6758 409.772 38.6323 409.772 36.1484C409.772 34.0111 410.35 32.1699 411.505 30.6246C412.675 29.0794 414.314 27.888 416.422 27.0504C418.545 26.2128 421.029 25.794 423.874 25.794C428.076 25.794 431.383 26.6822 433.795 28.4584C436.221 30.2347 437.636 32.6536 438.041 35.7152ZM472.294 35.7152L463.846 36.2351C463.701 35.513 463.391 34.8632 462.914 34.2855C462.438 33.6934 461.809 33.2241 461.03 32.8775C460.264 32.5165 459.347 32.3359 458.278 32.3359C456.849 32.3359 455.643 32.6392 454.661 33.2457C453.679 33.8378 453.188 34.6321 453.188 35.6285C453.188 36.4228 453.506 37.0943 454.141 37.6431C454.776 38.1919 455.867 38.6323 457.412 38.9645L463.434 40.1776C466.669 40.8419 469.081 41.9105 470.669 43.3835C472.258 44.8565 473.052 46.7917 473.052 49.1889C473.052 51.3696 472.409 53.283 471.124 54.9293C469.853 56.5756 468.106 57.8609 465.882 58.7852C463.672 59.695 461.123 60.1499 458.235 60.1499C453.831 60.1499 450.321 59.2328 447.707 57.3988C445.108 55.5503 443.584 53.0375 443.137 49.8604L452.213 49.3839C452.487 50.7269 453.152 51.7522 454.206 52.4599C455.26 53.1531 456.61 53.4996 458.257 53.4996C459.874 53.4996 461.174 53.1892 462.156 52.5682C463.152 51.9328 463.658 51.1168 463.672 50.1204C463.658 49.2828 463.304 48.5968 462.611 48.0625C461.918 47.5137 460.849 47.0949 459.405 46.8061L453.643 45.658C450.394 45.0082 447.975 43.8817 446.386 42.2788C444.812 40.6758 444.025 38.6323 444.025 36.1484C444.025 34.0111 444.603 32.1699 445.758 30.6246C446.928 29.0794 448.567 27.888 450.675 27.0504C452.798 26.2128 455.282 25.794 458.127 25.794C462.329 25.794 465.636 26.6822 468.048 28.4584C470.474 30.2347 471.889 32.6536 472.294 35.7152ZM485.426 59.5L476.372 26.2273H485.708L490.863 48.5824H491.167L496.539 26.2273H505.702L511.161 48.4524H511.442L516.511 26.2273H525.826L516.793 59.5H507.023L501.304 38.5746H500.893L495.174 59.5H485.426ZM544.948 60.1499C541.583 60.1499 538.673 59.435 536.218 58.0053C533.778 56.5612 531.893 54.5539 530.564 51.9833C529.236 49.3983 528.571 46.4018 528.571 42.9936C528.571 39.5566 529.236 36.5528 530.564 33.9822C531.893 31.3973 533.778 29.3899 536.218 27.9602C538.673 26.5161 541.583 25.794 544.948 25.794C548.313 25.794 551.215 26.5161 553.656 27.9602C556.111 29.3899 558.003 31.3973 559.331 33.9822C560.66 36.5528 561.324 39.5566 561.324 42.9936C561.324 46.4018 560.66 49.3983 559.331 51.9833C558.003 54.5539 556.111 56.5612 553.656 58.0053C551.215 59.435 548.313 60.1499 544.948 60.1499ZM544.991 53.0014C546.522 53.0014 547.8 52.5682 548.825 51.7017C549.851 50.8208 550.623 49.6222 551.143 48.1058C551.677 46.5895 551.945 44.8638 551.945 42.9286C551.945 40.9935 551.677 39.2678 551.143 37.7514C550.623 36.2351 549.851 35.0365 548.825 34.1555C547.8 33.2746 546.522 32.8342 544.991 32.8342C543.446 32.8342 542.146 33.2746 541.092 34.1555C540.052 35.0365 539.265 36.2351 538.731 37.7514C538.211 39.2678 537.951 40.9935 537.951 42.9286C537.951 44.8638 538.211 46.5895 538.731 48.1058C539.265 49.6222 540.052 50.8208 541.092 51.7017C542.146 52.5682 543.446 53.0014 544.991 53.0014ZM567.325 59.5V26.2273H576.271V32.0327H576.618C577.224 29.9676 578.242 28.4079 579.672 27.3537C581.102 26.285 582.748 25.7507 584.611 25.7507C585.073 25.7507 585.571 25.7796 586.106 25.8374C586.64 25.8951 587.109 25.9745 587.514 26.0756V34.2638C587.08 34.1339 586.481 34.0183 585.716 33.9173C584.95 33.8162 584.25 33.7656 583.614 33.7656C582.257 33.7656 581.044 34.0617 579.975 34.6538C578.921 35.2314 578.083 36.0401 577.462 37.0799C576.856 38.1197 576.553 39.3183 576.553 40.6758V59.5H567.325ZM602.996 60.0415C600.469 60.0415 598.18 59.3917 596.13 58.092C594.093 56.7778 592.476 54.8499 591.277 52.3082C590.093 49.7521 589.501 46.6184 589.501 42.907C589.501 39.0945 590.115 35.9246 591.342 33.3974C592.57 30.8557 594.202 28.9567 596.238 27.7003C598.289 26.4295 600.534 25.794 602.975 25.794C604.838 25.794 606.39 26.1117 607.632 26.7472C608.888 27.3681 609.899 28.148 610.665 29.0866C611.445 30.0109 612.037 30.9207 612.441 31.816H612.723V15.1364H621.929V59.5H612.831V54.1712H612.441C612.008 55.0954 611.394 56.0124 610.6 56.9222C609.82 57.8176 608.802 58.5613 607.545 59.1534C606.303 59.7455 604.787 60.0415 602.996 60.0415ZM605.921 52.6982C607.408 52.6982 608.665 52.2938 609.69 51.4851C610.73 50.6619 611.524 49.5138 612.073 48.0408C612.636 46.5678 612.918 44.8421 612.918 42.8636C612.918 40.8852 612.643 39.1667 612.094 37.7081C611.546 36.2495 610.751 35.1231 609.712 34.3288C608.672 33.5346 607.408 33.1374 605.921 33.1374C604.404 33.1374 603.126 33.549 602.087 34.3722C601.047 35.1953 600.26 36.3362 599.725 37.7947C599.191 39.2533 598.924 40.9429 598.924 42.8636C598.924 44.7988 599.191 46.5101 599.725 47.9975C600.274 49.4705 601.061 50.6258 602.087 51.4634C603.126 52.2866 604.404 52.6982 605.921 52.6982Z" fill="black"/>
<path d="M388 89.5L238 89.5" stroke="#29ABE2" stroke-width="3" stroke-linecap="round"/>
</svg>
