<svg width="316" height="91" viewBox="0 0 316 91" fill="none" xmlns="http://www.w3.org/2000/svg">
<path d="M74.0194 27.3952C73.8461 25.6478 73.1024 24.2904 71.7882 23.3228C70.4741 22.3552 68.6906 21.8714 66.4377 21.8714C64.9069 21.8714 63.6145 22.0881 62.5602 22.5213C61.506 22.9401 60.6973 23.525 60.1341 24.2759C59.5853 25.0269 59.3109 25.8789 59.3109 26.832C59.2821 27.6263 59.4481 28.3195 59.8092 28.9116C60.1846 29.5037 60.6973 30.0163 61.3472 30.4496C61.997 30.8684 62.748 31.2366 63.6 31.5543C64.452 31.8576 65.3618 32.1175 66.3294 32.3342L70.3152 33.2873C72.2503 33.7205 74.0266 34.2982 75.644 35.0202C77.2615 35.7423 78.6623 36.6304 79.8465 37.6847C81.0306 38.7389 81.9477 39.9808 82.5975 41.4105C83.2618 42.8402 83.6012 44.4793 83.6156 46.3278C83.6012 49.0427 82.908 51.3967 81.5361 53.3896C80.1786 55.368 78.2146 56.906 75.644 58.0036C73.0879 59.0866 70.0047 59.6282 66.3944 59.6282C62.813 59.6282 59.6936 59.0794 57.0364 57.9819C54.3937 56.8844 52.3286 55.2597 50.8411 53.108C49.3681 50.9418 48.5955 48.2629 48.5233 45.0714H57.5997C57.7007 46.5588 58.1268 47.8008 58.8777 48.7972C59.6431 49.7792 60.6612 50.523 61.932 51.0284C63.2173 51.5194 64.6687 51.7649 66.2861 51.7649C67.8746 51.7649 69.2538 51.5339 70.4235 51.0717C71.6077 50.6096 72.5247 49.967 73.1746 49.1438C73.8244 48.3207 74.1494 47.3748 74.1494 46.3061C74.1494 45.3097 73.8533 44.4721 73.2612 43.7933C72.6836 43.1146 71.8315 42.5369 70.7051 42.0604C69.5931 41.5838 68.2284 41.1506 66.611 40.7607L61.7804 39.5476C58.0401 38.6378 55.0869 37.2153 52.9207 35.2802C50.7545 33.3451 49.6786 30.7384 49.693 27.4602C49.6786 24.7741 50.3935 22.4274 51.8376 20.4201C53.2962 18.4128 55.2963 16.8459 57.8379 15.7195C60.3796 14.593 63.2679 14.0298 66.5027 14.0298C69.7953 14.0298 72.6691 14.593 75.1242 15.7195C77.5936 16.8459 79.5143 18.4128 80.8862 20.4201C82.2582 22.4274 82.9658 24.7525 83.0091 27.3952H74.0194ZM89.7514 59V25.7273H98.9794V59H89.7514ZM94.387 21.4382C93.0151 21.4382 91.8381 20.9833 90.8561 20.0735C89.8886 19.1493 89.4048 18.0445 89.4048 16.7592C89.4048 15.4884 89.8886 14.3981 90.8561 13.4883C91.8381 12.564 93.0151 12.1019 94.387 12.1019C95.759 12.1019 96.9287 12.564 97.8963 13.4883C98.8783 14.3981 99.3693 15.4884 99.3693 16.7592C99.3693 18.0445 98.8783 19.1493 97.8963 20.0735C96.9287 20.9833 95.759 21.4382 94.387 21.4382ZM121.362 72.1705C118.372 72.1705 115.809 71.7589 113.672 70.9357C111.549 70.127 109.859 69.0223 108.603 67.6214C107.346 66.2206 106.53 64.6465 106.155 62.8991L114.69 61.7511C114.95 62.4154 115.361 63.0363 115.924 63.614C116.488 64.1916 117.231 64.6538 118.156 65.0004C119.094 65.3614 120.235 65.5419 121.578 65.5419C123.586 65.5419 125.239 65.0509 126.539 64.0689C127.853 63.1013 128.51 61.4767 128.51 59.195V53.108H128.12C127.716 54.0322 127.109 54.9059 126.3 55.729C125.492 56.5522 124.452 57.2237 123.181 57.7436C121.91 58.2635 120.394 58.5234 118.632 58.5234C116.134 58.5234 113.859 57.9458 111.809 56.7905C109.772 55.6207 108.148 53.8372 106.935 51.44C105.736 49.0283 105.137 45.9812 105.137 42.2986C105.137 38.5295 105.751 35.3813 106.978 32.854C108.206 30.3268 109.837 28.435 111.874 27.1786C113.924 25.9222 116.17 25.294 118.61 25.294C120.473 25.294 122.033 25.6117 123.289 26.2472C124.546 26.8681 125.557 27.648 126.322 28.5866C127.102 29.5109 127.701 30.4207 128.12 31.316H128.467V25.7273H137.63V59.3249C137.63 62.1554 136.936 64.5238 135.55 66.43C134.164 68.3363 132.243 69.766 129.788 70.7191C127.347 71.6867 124.539 72.1705 121.362 72.1705ZM121.557 51.5916C123.044 51.5916 124.3 51.2234 125.326 50.4869C126.365 49.7359 127.16 48.6673 127.708 47.2809C128.272 45.8801 128.553 44.2049 128.553 42.2553C128.553 40.3058 128.279 38.6161 127.73 37.1864C127.181 35.7423 126.387 34.6231 125.347 33.8288C124.308 33.0346 123.044 32.6374 121.557 32.6374C120.04 32.6374 118.762 33.049 117.722 33.8722C116.683 34.6809 115.896 35.8073 115.361 37.2514C114.827 38.6955 114.56 40.3635 114.56 42.2553C114.56 44.176 114.827 45.8368 115.361 47.2376C115.91 48.6239 116.697 49.6998 117.722 50.4652C118.762 51.2161 120.04 51.5916 121.557 51.5916ZM154.201 39.7642V59H144.973V25.7273H153.768V31.5977H154.158C154.894 29.6625 156.129 28.1317 157.862 27.0053C159.595 25.8645 161.696 25.294 164.166 25.294C166.476 25.294 168.491 25.7995 170.209 26.8104C171.928 27.8213 173.264 29.2654 174.217 31.1428C175.17 33.0057 175.646 35.2296 175.646 37.8146V59H166.418V39.4609C166.433 37.4247 165.913 35.8362 164.859 34.6953C163.804 33.54 162.353 32.9624 160.505 32.9624C159.263 32.9624 158.165 33.2295 157.212 33.7638C156.273 34.2982 155.537 35.078 155.003 36.1033C154.483 37.1142 154.215 38.3345 154.201 39.7642ZM218.375 44.8331V25.7273H227.602V59H218.743V52.9563H218.396C217.645 54.9059 216.396 56.4728 214.649 57.657C212.916 58.8411 210.8 59.4332 208.302 59.4332C206.078 59.4332 204.121 58.9278 202.431 57.9169C200.742 56.906 199.42 55.4691 198.467 53.6062C197.529 51.7433 197.052 49.5121 197.038 46.9126V25.7273H206.265V45.2663C206.28 47.2304 206.807 48.7828 207.847 49.9236C208.887 51.0645 210.28 51.6349 212.028 51.6349C213.14 51.6349 214.179 51.3822 215.147 50.8768C216.114 50.3569 216.894 49.5915 217.486 48.5806C218.093 47.5697 218.389 46.3205 218.375 44.8331ZM234.984 71.4773V25.7273H244.082V31.316H244.493C244.898 30.4207 245.483 29.5109 246.248 28.5866C247.028 27.648 248.039 26.8681 249.281 26.2472C250.537 25.6117 252.097 25.294 253.96 25.294C256.386 25.294 258.624 25.9295 260.675 27.2003C262.726 28.4567 264.365 30.3557 265.592 32.8974C266.82 35.4246 267.433 38.5945 267.433 42.407C267.433 46.1184 266.834 49.2521 265.635 51.8082C264.451 54.3499 262.834 56.2778 260.783 57.592C258.747 58.8917 256.465 59.5415 253.938 59.5415C252.147 59.5415 250.624 59.2455 249.367 58.6534C248.125 58.0613 247.107 57.3176 246.313 56.4222C245.519 55.5124 244.912 54.5954 244.493 53.6712H244.212V71.4773H234.984ZM244.017 42.3636C244.017 44.3421 244.291 46.0678 244.84 47.5408C245.389 49.0138 246.183 50.1619 247.223 50.9851C248.263 51.7938 249.526 52.1982 251.014 52.1982C252.516 52.1982 253.786 51.7866 254.826 50.9634C255.866 50.1258 256.653 48.9705 257.187 47.4975C257.736 46.0101 258.01 44.2988 258.01 42.3636C258.01 40.4429 257.743 38.7533 257.209 37.2947C256.675 35.8362 255.888 34.6953 254.848 33.8722C253.808 33.049 252.53 32.6374 251.014 32.6374C249.512 32.6374 248.241 33.0346 247.201 33.8288C246.176 34.6231 245.389 35.7495 244.84 37.2081C244.291 38.6667 244.017 40.3852 244.017 42.3636Z" fill="black"/>
<path d="M233 89L83 89" stroke="#29ABE2" stroke-width="3" stroke-linecap="round"/>
</svg>
